<?xml version="1.0" standalone="no"?>
<!DOCTYPE svg PUBLIC "-//W3C//DTD SVG 20010904//EN"
 "http://www.w3.org/TR/2001/REC-SVG-20010904/DTD/svg10.dtd">
<svg version="1.0" xmlns="http://www.w3.org/2000/svg"
 width="4583.000000pt" height="4583.000000pt" viewBox="0 0 4583.000000 4583.000000"
 preserveAspectRatio="xMidYMid meet">
<metadata>
Created by potrace 1.11, written by Peter Selinger 2001-2013
</metadata>
<g transform="translate(0.000000,4583.000000) scale(0.100000,-0.100000)"
fill="#000000" stroke="none">
<path d="M23704 33032 c-5 -4 -10 -16 -11 -26 -1 -10 -4 -52 -7 -92 -3 -41 -9
-109 -13 -151 -12 -143 -10 -186 9 -189 10 -1 20 6 23 17 13 41 64 45 265 24
19 -2 76 -7 125 -11 50 -3 104 -8 120 -9 151 -14 202 -18 212 -18 7 0 10 -13
8 -36 -2 -20 -7 -74 -10 -121 -4 -47 -8 -101 -10 -120 -2 -19 -6 -69 -10 -110
-4 -41 -8 -91 -10 -110 -2 -19 -6 -73 -10 -120 -4 -47 -8 -98 -10 -115 -1 -16
-6 -64 -9 -105 -4 -41 -9 -95 -11 -120 -2 -25 -7 -76 -10 -115 -3 -38 -7 -90
-10 -115 -3 -25 -7 -74 -10 -110 -23 -290 -24 -294 -75 -305 -16 -4 -33 -11
-36 -17 -9 -14 13 -33 39 -34 20 -1 147 -12 222 -19 41 -4 179 -16 241 -20 48
-4 51 -3 50 18 -1 12 -7 21 -13 20 -6 -1 -23 9 -38 23 -27 24 -27 26 -20 117
3 51 8 108 10 127 2 19 7 73 10 120 4 47 8 99 10 115 2 17 6 66 9 111 4 45 8
100 11 123 9 86 23 243 30 341 3 33 11 124 20 215 2 22 7 81 11 130 4 50 8 99
10 110 1 11 3 35 3 53 l1 33 68 -6 c37 -3 92 -7 122 -10 30 -2 80 -7 110 -10
30 -3 78 -7 105 -9 276 -24 275 -23 301 -41 13 -8 24 -22 24 -30 0 -12 38 -43
41 -33 4 18 9 56 14 123 4 44 8 93 10 109 3 23 15 169 17 206 1 22 -5 30 -22
30 -11 0 -20 -7 -20 -15 0 -8 -11 -22 -25 -31 -24 -16 -87 -16 -235 1 -19 2
-71 6 -115 10 -44 3 -98 7 -120 9 -22 2 -74 7 -115 11 -143 12 -185 16 -230
20 -73 7 -192 17 -230 20 -88 7 -188 16 -220 20 -19 2 -71 7 -115 10 -44 4
-96 8 -115 10 -19 2 -71 6 -115 9 -176 14 -201 21 -211 61 -6 25 -25 38 -40
27z"/>
<path d="M23064 32986 c-10 -40 -30 -45 -234 -61 -41 -3 -91 -8 -110 -10 -19
-2 -69 -7 -110 -10 -41 -3 -95 -8 -120 -10 -58 -6 -174 -16 -225 -20 -22 -2
-69 -6 -105 -9 -36 -3 -96 -8 -135 -12 -38 -3 -86 -7 -105 -9 -19 -2 -69 -6
-110 -10 -41 -3 -97 -8 -125 -11 -27 -3 -75 -7 -105 -9 -30 -3 -77 -7 -105 -9
-154 -14 -211 -19 -222 -19 -7 0 -13 -12 -13 -25 0 -14 3 -23 6 -19 4 3 19 0
34 -8 35 -18 37 -28 55 -245 3 -30 7 -80 10 -110 3 -30 7 -84 10 -120 3 -36 8
-87 11 -115 5 -49 7 -81 20 -235 3 -41 8 -93 10 -115 2 -22 6 -67 9 -100 3
-33 7 -82 9 -110 3 -27 7 -82 11 -121 3 -39 8 -93 10 -120 3 -27 7 -78 11
-114 3 -36 7 -81 8 -100 21 -231 18 -262 -24 -275 -13 -4 -20 -15 -20 -31 0
-14 4 -23 8 -20 4 2 43 7 87 11 44 3 100 8 125 11 25 2 74 6 110 9 36 3 85 7
110 10 25 2 77 7 116 10 40 3 91 8 115 10 24 3 76 7 114 10 39 3 90 7 115 10
25 2 79 7 120 11 41 4 89 8 105 9 60 5 201 17 230 20 39 3 180 16 225 20 19 2
80 7 135 10 98 7 101 6 127 -18 15 -14 37 -25 47 -24 17 1 19 7 16 42 -5 45
-11 112 -21 235 -4 47 -8 96 -9 110 -2 14 -3 33 -4 43 -1 11 -9 17 -26 17 -18
0 -25 -5 -23 -16 5 -28 -42 -54 -107 -59 -33 -3 -80 -7 -105 -10 -25 -3 -76
-7 -115 -10 -38 -3 -90 -7 -115 -10 -25 -3 -74 -7 -110 -10 -36 -3 -85 -7
-110 -10 -25 -2 -76 -7 -115 -10 -38 -2 -92 -7 -120 -9 -27 -3 -81 -8 -120
-11 -38 -4 -86 -8 -105 -10 -62 -6 -214 -18 -245 -19 -27 -1 -30 2 -31 29 -1
27 -11 146 -19 230 -2 17 -6 66 -10 110 -3 44 -8 97 -10 118 -4 36 -3 37 28
38 18 1 43 2 57 4 14 1 59 5 100 9 177 15 249 21 355 31 82 8 116 11 252 20
l102 7 28 -30 c53 -58 59 -32 38 163 -2 22 -7 76 -11 120 -7 86 -11 135 -13
148 -3 20 -32 3 -46 -27 -17 -34 -38 -45 -100 -51 -16 -2 -61 -6 -100 -9 -38
-3 -90 -8 -115 -10 -51 -6 -144 -14 -240 -21 -36 -3 -85 -7 -110 -10 -25 -3
-76 -7 -115 -11 -38 -3 -85 -7 -103 -8 -18 -2 -34 -1 -36 3 -3 4 -7 40 -11 81
-6 73 -10 126 -21 240 -13 147 -13 150 4 151 10 1 28 2 42 4 23 2 114 10 235
20 126 11 164 15 216 20 30 3 80 7 110 10 81 6 191 15 240 20 24 3 73 7 109
10 36 3 90 7 120 10 30 3 87 8 125 11 39 4 79 7 90 9 29 3 72 -21 78 -45 4
-14 12 -21 24 -18 24 5 23 21 -4 313 -3 33 -7 71 -8 85 -2 14 -3 33 -4 43 -2
27 -40 21 -47 -7z"/>
<path d="M20520 31823 c-8 -2 -22 -7 -30 -10 -8 -3 -19 -7 -25 -8 -22 -5 -271
-88 -280 -94 -5 -3 -15 -6 -21 -7 -9 -2 -202 -72 -264 -97 -14 -6 -30 -11 -36
-12 -6 -2 -27 -10 -45 -18 -19 -8 -70 -29 -114 -47 -44 -18 -108 -46 -143 -62
-35 -15 -65 -28 -68 -28 -2 0 -39 -16 -81 -36 -43 -20 -79 -35 -80 -35 -2 0
-42 -19 -90 -43 -49 -24 -124 -60 -168 -81 -44 -22 -81 -42 -83 -47 -2 -4 -10
-8 -18 -8 -8 0 -31 -10 -52 -23 -20 -13 -46 -27 -57 -31 -46 -17 -432 -240
-615 -355 -222 -139 -609 -405 -664 -456 -6 -5 -38 -30 -71 -54 -100 -74 -344
-273 -481 -392 -120 -105 -155 -137 -308 -280 l-58 -55 118 -123 119 -122 45
42 c25 23 72 68 105 99 292 276 744 633 1110 878 94 63 177 119 185 125 8 7
32 21 53 32 20 11 37 23 37 27 0 5 4 8 10 8 5 0 56 28 112 63 161 99 319 187
493 277 88 46 164 87 170 91 5 5 15 9 23 9 8 0 28 10 45 22 18 13 33 22 34 21
2 -2 50 20 108 47 58 28 108 50 110 50 3 0 40 16 82 36 92 42 98 44 188 80 39
15 79 34 90 41 11 6 23 12 28 12 8 0 107 35 142 50 22 10 54 22 70 27 6 2 30
11 55 20 25 9 128 45 230 79 124 42 185 67 184 76 -1 8 -5 28 -8 44 -3 17 -8
41 -11 55 -2 14 -7 36 -10 50 -12 55 -27 141 -28 158 0 12 -11 14 -37 5z"/>
<path d="M26233 31808 c-1 -17 -13 -89 -18 -108 -2 -8 -7 -31 -10 -50 -3 -19
-8 -42 -10 -50 -2 -8 -7 -30 -10 -49 -3 -19 -8 -37 -10 -41 -10 -16 20 -31
145 -73 248 -83 484 -171 660 -246 62 -27 99 -42 110 -46 5 -2 30 -13 145 -65
125 -57 464 -226 600 -300 244 -133 444 -254 700 -425 82 -55 154 -102 160
-104 5 -2 15 -9 21 -15 6 -6 37 -29 70 -51 32 -22 61 -42 64 -45 3 -3 32 -25
65 -50 311 -232 623 -493 861 -722 50 -49 95 -88 100 -88 9 0 82 73 183 182
l53 57 -98 94 c-134 127 -290 265 -465 411 -141 117 -167 138 -254 205 -22 17
-45 35 -51 40 -40 33 -284 211 -289 211 -3 0 -13 7 -22 15 -23 24 -433 293
-573 377 -132 79 -146 87 -360 206 -161 89 -715 362 -736 362 -5 0 -36 13
-129 55 -47 21 -344 139 -355 141 -3 0 -12 4 -20 7 -42 19 -227 84 -262 93 -5
1 -10 3 -13 4 -3 1 -8 3 -12 5 -5 1 -15 5 -23 8 -20 8 -141 48 -160 53 -8 2
-24 6 -36 9 -13 4 -21 2 -21 -7z"/>
<path d="M23665 31372 c-81 -9 -155 -104 -149 -193 8 -125 99 -194 231 -174
101 15 172 147 133 249 -12 34 -59 85 -92 102 -29 15 -77 22 -123 16z"/>
<path d="M25244 31174 c-45 -15 -109 -82 -117 -120 -24 -129 47 -232 168 -242
108 -9 196 66 201 171 6 143 -117 237 -252 191z"/>
<path d="M23249 30225 c-2 -1 -51 -6 -109 -10 -153 -9 -291 -21 -350 -30 -14
-2 -50 -6 -80 -10 -30 -3 -66 -7 -80 -9 -38 -7 -89 -14 -145 -21 -27 -4 -57
-8 -65 -10 -8 -3 -32 -7 -54 -11 -21 -3 -48 -8 -60 -10 -11 -2 -32 -6 -46 -9
-14 -2 -70 -14 -125 -25 -55 -12 -111 -24 -125 -26 -14 -3 -38 -9 -55 -14 -16
-5 -41 -11 -55 -14 -36 -7 -58 -12 -125 -31 -33 -9 -67 -18 -75 -20 -8 -2 -40
-11 -70 -20 -30 -9 -59 -17 -65 -19 -5 -1 -37 -11 -70 -21 -33 -10 -64 -19
-70 -21 -11 -2 -131 -42 -155 -51 -8 -3 -19 -7 -25 -9 -21 -5 -181 -65 -212
-79 -17 -8 -35 -15 -41 -15 -5 0 -36 -12 -68 -26 -33 -14 -70 -30 -84 -36 -14
-5 -38 -16 -55 -23 -16 -8 -48 -21 -70 -31 -65 -27 -475 -230 -540 -267 -99
-55 -110 -62 -115 -67 -3 -3 -21 -13 -40 -22 -55 -28 -235 -140 -238 -150 -2
-4 -8 -8 -12 -8 -11 0 -164 -102 -168 -112 -2 -5 -8 -8 -13 -8 -14 0 -253
-176 -399 -293 -491 -395 -928 -853 -1332 -1397 -154 -206 -363 -522 -473
-712 -82 -142 -125 -220 -125 -228 0 -4 -3 -10 -7 -12 -12 -5 -151 -275 -233
-452 -102 -222 -245 -581 -296 -749 -8 -26 -40 -86 -70 -133 -31 -47 -58 -93
-61 -102 -4 -10 -9 -19 -13 -22 -7 -5 -48 -79 -117 -205 -43 -79 -205 -407
-235 -475 -9 -19 -28 -62 -43 -95 -15 -33 -28 -64 -30 -70 -1 -5 -7 -23 -13
-38 -7 -16 -22 -52 -33 -80 -12 -29 -27 -65 -34 -82 -27 -61 -176 -526 -190
-592 -3 -13 -7 -31 -10 -40 -7 -27 -53 -233 -59 -268 -3 -16 -8 -41 -11 -55
-3 -14 -7 -41 -10 -60 -3 -19 -7 -44 -9 -55 -2 -11 -7 -49 -11 -85 -4 -36 -9
-78 -11 -95 -22 -195 -22 -573 0 -705 3 -14 7 -45 10 -70 6 -47 13 -88 21
-130 3 -14 7 -34 9 -45 2 -11 9 -40 16 -65 7 -25 14 -56 17 -69 2 -14 6 -28 8
-31 2 -4 7 -22 10 -41 3 -19 13 -54 21 -79 9 -25 17 -53 19 -63 8 -36 88 -262
97 -274 6 -7 8 -13 5 -13 -3 0 3 -21 14 -47 11 -27 24 -57 29 -68 84 -203 269
-531 382 -680 4 -5 39 -50 76 -100 126 -166 295 -340 469 -485 92 -76 93 -77
166 -221 41 -79 88 -168 106 -197 17 -29 31 -55 31 -58 0 -2 11 -23 26 -45 14
-22 33 -55 43 -72 70 -122 231 -370 243 -375 4 -2 8 -8 8 -13 0 -22 264 -376
424 -569 348 -418 800 -855 1181 -1144 33 -25 65 -49 70 -54 6 -4 26 -19 45
-32 19 -14 37 -28 40 -31 17 -18 391 -273 451 -306 19 -10 63 -38 99 -61 36
-23 70 -42 77 -42 6 0 13 -4 15 -8 2 -5 15 -15 30 -23 14 -8 93 -51 175 -95
131 -72 380 -196 471 -235 17 -8 32 -18 32 -22 0 -5 5 -5 10 -2 6 4 16 2 23
-3 31 -25 264 -117 532 -210 88 -31 163 -60 166 -65 3 -5 9 -8 13 -7 18 6 75
-12 72 -23 -1 -7 -1 -9 1 -4 7 12 40 8 52 -6 6 -8 7 -18 3 -22 -4 -5 -1 -5 6
-1 7 4 10 11 7 15 -2 5 7 6 20 3 14 -2 25 -8 25 -12 0 -5 8 -7 18 -6 24 4 75
-15 90 -33 8 -9 11 -10 7 -3 -8 14 20 11 70 -8 17 -6 31 -11 33 -11 1 1 3 1 5
0 1 0 10 -2 20 -4 10 -2 26 -7 35 -10 9 -4 35 -9 57 -11 21 -3 41 -8 45 -13 3
-4 12 -7 21 -6 8 2 31 -3 51 -9 19 -7 42 -12 52 -10 9 1 16 -5 16 -14 0 -12 3
-13 8 -5 4 7 16 10 27 8 11 -2 25 -4 32 -4 7 -1 10 -8 6 -18 -5 -15 -3 -14 10
2 9 11 17 16 17 10 0 -5 17 -11 37 -13 20 -1 48 -5 62 -8 14 -3 57 -11 94 -17
37 -7 66 -15 63 -18 -3 -3 8 -4 24 -1 21 3 37 -2 51 -14 16 -14 19 -15 14 -2
-5 12 -1 14 19 11 14 -3 23 -9 20 -14 -3 -5 -1 -9 5 -9 5 0 12 6 14 13 4 9 6
9 6 0 1 -7 7 -10 15 -7 8 3 24 1 35 -6 13 -7 21 -7 21 -1 0 6 6 9 13 6 14 -4
85 -15 139 -20 44 -4 61 -13 52 -27 -4 -7 -2 -8 5 -4 6 4 9 12 6 17 -9 14 31
11 44 -4 6 -8 9 -16 6 -19 -3 -3 5 -13 17 -24 21 -17 21 -18 8 -1 -8 11 -15
27 -17 36 -2 16 4 17 54 10 31 -4 59 -8 62 -7 21 2 31 -4 25 -14 -6 -10 -4
-10 7 0 17 16 46 16 52 0 4 -10 6 -10 6 0 1 6 6 12 12 12 5 0 7 -5 3 -12 -5
-7 -3 -8 6 -3 20 12 60 12 60 0 0 -5 5 -3 10 5 7 11 10 11 10 2 0 -8 5 -10 12
-6 8 5 9 1 5 -12 -7 -18 -6 -18 7 -1 12 16 26 18 83 15 37 -2 71 -7 75 -13 5
-6 8 -5 8 3 0 7 4 11 8 8 5 -3 8 -24 7 -46 -1 -22 1 -38 4 -34 3 3 7 19 7 35
2 45 3 49 15 49 6 0 8 -7 5 -16 -5 -13 -3 -14 6 -7 23 18 58 22 58 8 0 -8 4
-16 9 -19 5 -4 7 4 3 16 -5 23 -5 23 17 4 18 -17 21 -17 15 -3 -3 9 -2 17 4
17 14 0 22 -26 11 -37 -6 -6 -4 -10 5 -10 10 0 13 8 9 26 -4 25 -4 25 17 6 15
-14 17 -20 8 -26 -8 -5 -5 -8 9 -6 20 1 21 3 8 17 -8 9 -15 19 -15 21 0 9 55
4 62 -6 5 -6 8 -6 8 2 0 15 29 10 41 -8 7 -12 9 -12 9 1 0 11 11 15 40 15 31
0 39 -3 35 -15 -4 -8 -3 -11 1 -7 4 4 12 0 18 -9 10 -13 12 -13 12 5 0 11 -4
17 -8 15 -4 -3 -8 -1 -8 4 0 6 29 10 64 10 35 0 69 3 75 6 6 4 11 1 11 -6 0
-8 3 -9 8 -3 4 6 40 11 79 10 40 0 73 2 73 5 0 3 16 6 35 7 25 1 33 -2 28 -10
-4 -7 0 -6 10 2 9 7 24 11 32 7 8 -3 15 -2 15 3 0 4 7 8 15 8 10 0 14 -6 10
-16 -4 -13 -2 -12 9 2 13 17 56 24 56 9 0 -4 -6 -14 -12 -22 -11 -12 -10 -12
5 -1 9 7 17 19 17 25 0 12 25 16 127 19 29 1 53 5 53 8 0 3 16 5 35 4 19 -1
35 3 35 8 0 5 8 1 18 -10 9 -10 14 -14 10 -9 -12 16 -9 26 7 26 8 0 15 -6 15
-12 0 -7 5 -5 11 5 6 9 15 15 20 12 5 -4 6 -11 3 -17 -4 -7 -2 -8 5 -4 6 4 8
12 5 18 -5 7 -1 9 9 5 10 -4 17 -1 17 6 0 7 3 8 8 2 9 -13 35 -18 27 -5 -4 6
4 10 19 10 13 0 36 4 50 10 18 7 26 6 26 -1 0 -8 5 -7 15 1 8 7 24 10 35 7 11
-3 20 -1 20 3 0 8 100 26 128 23 6 0 12 2 12 6 0 4 6 8 13 8 33 2 74 10 84 16
6 4 27 8 47 9 20 2 36 8 36 13 0 6 5 3 10 -5 8 -12 10 -12 10 -1 0 11 3 11 16
1 12 -11 15 -11 12 0 -2 9 21 19 72 32 97 24 97 24 150 39 25 7 54 14 65 16
11 2 27 6 35 10 8 3 23 8 32 9 10 2 23 5 30 6 7 2 15 5 18 8 6 6 97 31 120 34
8 0 17 3 20 6 13 14 171 61 182 54 7 -4 10 -3 5 1 -9 11 82 47 96 38 6 -3 7
-1 4 4 -8 12 50 26 66 16 5 -3 7 -1 4 4 -8 13 20 26 36 16 7 -3 9 -2 4 2 -6 7
93 52 129 59 6 1 23 9 37 19 15 9 31 17 36 17 5 0 38 13 73 29 35 15 105 47
156 71 197 89 486 242 687 363 174 105 546 353 565 377 3 3 21 17 40 30 19 14
40 28 45 32 6 5 28 22 50 39 22 16 47 35 55 42 8 7 51 41 95 77 159 127 392
338 560 505 207 206 334 348 583 650 10 11 42 54 72 95 30 41 57 77 61 80 11
9 155 214 236 335 224 337 426 706 598 1095 67 150 162 383 170 415 3 12 13
42 27 75 26 64 132 398 129 407 0 2 6 18 15 38 8 19 12 35 9 35 -3 0 -1 8 4
18 6 11 12 30 15 43 3 13 13 51 21 84 9 33 18 70 20 82 2 12 8 37 14 55 6 18
12 44 15 58 3 14 8 36 11 50 3 14 7 36 10 50 11 55 14 72 20 90 3 10 7 32 10
49 2 17 6 38 9 48 3 10 8 36 11 58 4 22 9 49 11 60 4 27 13 79 18 113 2 15 7
41 10 57 2 17 8 55 11 85 4 30 9 66 11 80 2 14 6 50 10 80 3 30 7 66 9 80 42
351 52 1034 20 1375 -2 22 -7 72 -10 110 -3 39 -8 84 -9 100 -2 17 -6 57 -10
90 -4 33 -8 74 -11 90 -6 40 -15 102 -21 144 -2 19 -6 47 -9 63 -3 15 -7 43
-10 61 -9 50 -14 80 -20 107 -3 14 -7 39 -10 55 -2 17 -7 41 -10 55 -3 14 -8
39 -11 55 -2 17 -10 48 -16 70 -5 22 -11 49 -13 60 -1 11 -19 85 -39 165 -21
80 -39 154 -42 165 -2 11 -18 65 -34 120 -17 55 -32 107 -34 115 -3 8 -25 76
-50 150 -26 74 -48 142 -50 150 -2 9 -31 85 -64 170 -52 135 -70 181 -112 275
-5 11 -23 54 -41 95 -31 74 -227 466 -272 545 -12 22 -38 67 -56 100 -45 80
-105 179 -111 185 -3 3 -14 21 -24 40 -40 72 -209 323 -321 475 -306 415 -660
806 -1033 1139 -67 60 -122 113 -122 118 0 5 5 6 12 2 7 -4 8 -3 4 5 -6 9 -11
9 -22 0 -12 -10 -13 -9 -8 5 5 12 -3 20 -29 31 -28 11 -249 179 -303 230 -6 5
-26 21 -44 35 -18 14 -39 31 -46 38 -7 6 -14 12 -17 12 -2 0 -108 69 -234 154
-127 85 -242 160 -256 167 -14 8 -73 42 -131 77 -58 34 -133 78 -168 98 -61
34 -486 249 -500 253 -4 1 -28 11 -53 22 -24 11 -47 20 -50 20 -3 -1 -25 11
-50 24 -25 14 -46 25 -47 25 -2 -1 -14 3 -28 8 -14 6 -90 36 -170 67 -80 32
-149 58 -155 59 -5 1 -14 4 -20 7 -10 6 -145 53 -155 54 -3 0 -18 6 -35 12
-36 14 -226 73 -252 78 -10 2 -19 4 -20 5 -2 2 -6 3 -10 4 -5 2 -28 8 -53 15
-25 7 -52 15 -60 16 -8 2 -51 13 -95 25 -78 20 -100 26 -140 34 -11 2 -50 11
-88 20 -37 9 -81 18 -99 21 -17 3 -34 7 -37 9 -3 2 -28 7 -55 10 -27 4 -52 9
-56 11 -3 2 -24 6 -46 9 -22 4 -51 8 -64 11 -13 3 -40 7 -60 10 -20 3 -47 7
-60 10 -33 6 -89 15 -136 20 -21 2 -55 7 -74 9 -31 4 -75 9 -185 21 -16 2 -66
7 -110 10 -44 4 -100 9 -125 12 -55 5 -866 13 -871 8z"/>
<path d="M16770 16789 c-14 -6 -42 -28 -62 -51 -31 -33 -38 -48 -38 -82 0 -46
27 -98 62 -117 17 -10 94 -14 278 -15 140 -1 269 -4 285 -7 17 -3 47 -8 68
-11 21 -4 47 -11 57 -16 10 -6 37 -10 59 -10 34 0 44 6 71 38 26 31 31 44 29
82 -4 77 -28 112 -84 126 -71 18 -197 30 -430 39 -77 3 -168 12 -203 20 -35 8
-64 15 -65 14 -1 0 -13 -5 -27 -10z"/>
<path d="M28782 16416 c-19 -5 -47 -23 -63 -38 -40 -41 -39 -82 4 -139 37 -49
107 -156 107 -165 0 -2 9 -17 19 -32 30 -43 185 -297 183 -299 -1 -2 7 -13 17
-25 11 -13 60 -85 110 -161 49 -76 115 -174 146 -218 33 -47 53 -85 49 -92
-18 -29 -59 -65 -68 -60 -6 4 -8 2 -3 -2 12 -14 -54 -75 -82 -75 -47 0 -101
-21 -136 -52 -28 -24 -35 -37 -35 -67 0 -26 7 -44 21 -57 12 -10 78 -102 147
-204 192 -283 378 -524 496 -642 58 -58 107 -70 163 -41 52 27 76 63 75 112
-1 40 3 45 69 99 134 109 445 323 536 367 50 25 98 56 106 68 18 27 16 99 -2
121 -16 19 -73 36 -126 36 l-40 0 -154 313 c-84 171 -167 331 -185 354 -44 58
-105 87 -186 87 -128 1 -229 -44 -396 -175 -8 -6 -54 53 -143 185 l-131 194
32 39 c46 55 244 219 303 249 67 36 103 62 115 83 30 58 11 123 -43 146 -40
17 -133 13 -172 -8 -17 -8 -52 -39 -80 -67 -27 -28 -81 -77 -120 -108 -38 -31
-72 -59 -75 -62 -3 -3 -22 -20 -43 -38 l-39 -33 -42 68 c-58 95 -120 205 -124
223 -2 8 -5 22 -6 30 -6 38 -19 59 -42 75 -30 20 -115 26 -162 11z m1154
-1061 c25 -25 153 -283 260 -525 14 -30 32 -67 40 -82 l15 -28 -67 -47 c-37
-27 -144 -105 -238 -175 -94 -69 -174 -124 -178 -122 -4 3 -53 66 -110 142
-57 75 -106 139 -110 140 -5 2 -8 7 -8 12 0 5 -34 58 -75 119 -41 61 -75 118
-75 127 0 36 164 238 258 317 31 26 60 47 64 47 3 0 13 7 22 15 14 14 152 83
169 84 4 1 19 -10 33 -24z"/>
<path d="M17581 16389 c-30 -5 -61 -15 -68 -21 -24 -19 -44 -80 -40 -120 5
-45 23 -67 86 -106 25 -16 110 -68 188 -117 l142 -88 -36 -44 c-57 -69 -63
-70 -146 -20 -39 24 -104 60 -143 81 -39 20 -76 46 -83 59 -22 39 -90 87 -125
87 -17 0 -36 -4 -42 -8 -11 -7 -48 -62 -85 -128 -10 -19 -27 -49 -38 -66 -48
-85 -96 -168 -123 -218 -17 -30 -37 -62 -44 -71 -20 -22 -25 -99 -8 -130 22
-44 71 -79 110 -79 26 0 69 -20 162 -77 148 -89 435 -281 440 -294 2 -5 8 -9
12 -9 5 0 50 -29 99 -65 50 -36 93 -65 97 -65 4 0 16 -10 28 -22 68 -71 117
-108 144 -108 40 0 78 33 86 74 4 22 14 37 26 41 27 9 220 202 220 220 0 8 4
15 9 15 15 0 33 95 27 137 -10 61 -53 137 -104 184 -26 24 -45 49 -44 54 2 6
0 7 -3 3 -6 -6 -90 43 -105 62 -3 3 -55 39 -117 80 l-112 75 49 48 48 49 152
-104 c84 -56 162 -109 174 -115 11 -7 20 -18 18 -24 -1 -6 2 -8 7 -5 9 6 53
-29 121 -92 26 -24 24 -24 132 -10 9 1 16 5 16 8 -1 3 6 20 14 39 17 38 15 78
-7 121 -15 30 -58 80 -68 80 -10 0 -152 84 -155 92 -2 4 -8 8 -13 8 -8 0 -148
87 -174 107 -5 5 -25 19 -43 31 l-32 23 67 65 c37 35 67 73 68 85 2 28 -46
101 -84 128 -60 43 -85 34 -176 -64 -75 -81 -82 -87 -97 -71 -9 9 -20 16 -25
17 -4 0 -82 51 -173 112 -152 103 -165 114 -162 140 1 15 -1 26 -5 26 -4 -1
-32 -5 -62 -10z m-151 -612 c29 -11 104 -45 118 -54 5 -2 -130 -197 -140 -201
-4 -2 -8 -10 -8 -18 0 -8 -3 -14 -6 -14 -9 0 -124 72 -124 78 0 2 24 46 53 96
28 50 55 98 59 108 9 21 5 21 48 5z m333 -176 c15 -8 27 -18 27 -23 0 -4 5 -8
11 -8 7 0 31 -12 55 -27 l42 -27 -46 -60 c-26 -33 -50 -65 -55 -71 -66 -87
-81 -105 -89 -105 -6 0 -22 9 -36 21 -15 11 -46 33 -69 50 -46 31 -50 40 -30
61 7 7 28 36 47 63 64 95 102 146 109 143 3 -2 18 -10 34 -17z m350 -234 c26
-19 44 -37 40 -42 -5 -4 -3 -5 4 -2 10 6 67 -32 85 -57 9 -13 -2 -37 -15 -29
-6 4 -7 1 -2 -7 5 -8 -20 -40 -79 -96 -48 -46 -91 -84 -96 -84 -5 0 -15 7 -24
15 -8 8 -18 15 -21 15 -4 0 -20 10 -35 23 -15 12 -42 30 -60 40 -17 9 -30 22
-28 27 5 15 172 229 179 230 3 0 27 -15 52 -33z"/>
<path d="M17028 16245 c-2 -1 -23 -5 -48 -8 -25 -4 -56 -9 -70 -12 -46 -10
-75 -15 -110 -21 -19 -3 -42 -7 -50 -10 -8 -3 -26 -8 -40 -10 -32 -6 -237 -58
-315 -79 -33 -9 -94 -25 -135 -35 -90 -22 -125 -54 -135 -124 -9 -55 3 -94 36
-118 44 -32 91 -28 194 18 22 10 42 18 45 19 3 0 11 4 18 8 25 16 10 -11 -66
-115 -42 -59 -114 -161 -160 -225 -46 -65 -143 -202 -217 -305 -73 -103 -140
-207 -148 -232 -25 -72 -1 -139 62 -178 66 -42 123 -17 163 72 68 149 79 168
187 330 148 222 374 523 453 605 64 66 78 86 78 112 0 32 11 41 63 48 53 7
103 17 111 22 5 3 61 7 125 8 122 2 154 11 181 49 22 30 28 58 18 87 -12 34
-58 78 -89 85 -28 6 -146 13 -151 9z"/>
<path d="M27030 15790 c0 -5 5 -10 10 -10 6 0 10 5 10 10 0 6 -4 10 -10 10 -5
0 -10 -4 -10 -10z"/>
<path d="M20390 15766 c0 -2 8 -10 18 -17 15 -13 16 -12 3 4 -13 16 -21 21
-21 13z"/>
<path d="M27575 15759 c-4 -6 -5 -12 -2 -15 2 -3 7 2 10 11 7 17 1 20 -8 4z"/>
<path d="M26436 15743 c-6 -14 -5 -15 5 -6 7 7 10 15 7 18 -3 3 -9 -2 -12 -12z"/>
<path d="M21406 15692 c-3 -5 1 -9 9 -9 8 0 12 4 9 9 -3 4 -7 8 -9 8 -2 0 -6
-4 -9 -8z"/>
<path d="M21470 15689 c0 -5 5 -7 10 -4 6 3 10 8 10 11 0 2 -4 4 -10 4 -5 0
-10 -5 -10 -11z"/>
<path d="M20435 15679 c-4 -6 -5 -12 -2 -15 2 -3 7 2 10 11 7 17 1 20 -8 4z"/>
<path d="M21085 15670 c-3 -6 1 -7 9 -4 18 7 21 14 7 14 -6 0 -13 -4 -16 -10z"/>
<path d="M25730 15669 c0 -5 5 -7 10 -4 6 3 10 8 10 11 0 2 -4 4 -10 4 -5 0
-10 -5 -10 -11z"/>
<path d="M20955 15661 c-3 -5 -2 -12 3 -15 5 -3 9 1 9 9 0 17 -3 19 -12 6z"/>
<path d="M21375 15661 c-3 -5 -2 -12 3 -15 5 -3 9 1 9 9 0 17 -3 19 -12 6z"/>
<path d="M25855 15661 c-3 -5 -2 -12 3 -15 5 -3 9 1 9 9 0 17 -3 19 -12 6z"/>
<path d="M21455 15649 c-3 -4 2 -6 10 -5 21 3 28 13 10 13 -9 0 -18 -4 -20 -8z"/>
<path d="M21575 15650 c-3 -5 -1 -10 4 -10 6 0 11 5 11 10 0 6 -2 10 -4 10 -3
0 -8 -4 -11 -10z"/>
<path d="M21690 15649 c0 -5 5 -7 10 -4 6 3 10 8 10 11 0 2 -4 4 -10 4 -5 0
-10 -5 -10 -11z"/>
<path d="M25655 15650 c-2 -3 9 -6 25 -6 17 0 27 2 25 5 -8 7 -45 9 -50 1z"/>
<path d="M20513 15635 c0 -8 4 -12 9 -9 5 3 6 10 3 15 -9 13 -12 11 -12 -6z"/>
<path d="M21013 15621 c0 -11 5 -18 9 -15 4 3 5 11 1 19 -7 21 -12 19 -10 -4z"/>
<path d="M21093 15621 c0 -11 5 -18 9 -15 4 3 5 11 1 19 -7 21 -12 19 -10 -4z"/>
<path d="M21134 15626 c1 -8 5 -18 8 -22 4 -3 5 1 4 10 -1 8 -5 18 -8 22 -4 3
-5 -1 -4 -10z"/>
<path d="M21254 15626 c1 -8 5 -18 8 -22 4 -3 5 1 4 10 -1 8 -5 18 -8 22 -4 3
-5 -1 -4 -10z"/>
<path d="M21506 15628 c3 -5 10 -6 15 -3 13 9 11 12 -6 12 -8 0 -12 -4 -9 -9z"/>
<path d="M26015 15630 c3 -5 8 -10 11 -10 2 0 4 5 4 10 0 6 -5 10 -11 10 -5 0
-7 -4 -4 -10z"/>
<path d="M26134 15626 c1 -8 5 -18 8 -22 4 -3 5 1 4 10 -1 8 -5 18 -8 22 -4 3
-5 -1 -4 -10z"/>
<path d="M26210 15630 c0 -5 5 -10 11 -10 5 0 7 5 4 10 -3 6 -8 10 -11 10 -2
0 -4 -4 -4 -10z"/>
<path d="M26260 15630 c-9 -6 -10 -10 -3 -10 6 0 15 5 18 10 8 12 4 12 -15 0z"/>
<path d="M26675 15631 c-3 -5 -2 -12 3 -15 5 -3 9 1 9 9 0 17 -3 19 -12 6z"/>
<path d="M27770 15629 c-30 -5 -60 -10 -67 -11 -6 -1 -16 -12 -22 -25 -6 -12
-14 -23 -19 -23 -10 0 -13 -16 -13 -77 -1 -41 12 -76 38 -101 7 -8 10 -18 7
-24 -4 -6 -2 -8 4 -4 15 9 111 11 147 3 17 -4 39 -9 50 -12 35 -8 91 -30 114
-45 21 -15 21 -15 -29 -53 -28 -20 -56 -34 -62 -31 -7 4 -8 2 -4 -4 7 -12
-109 -99 -126 -94 -5 1 -7 -1 -4 -6 3 -5 -6 -15 -19 -22 -21 -11 -27 -11 -44
4 -18 16 -19 15 -30 -28 -15 -60 -14 -101 3 -135 33 -63 122 -85 189 -48 39
22 39 22 53 2 7 -11 17 -24 22 -30 4 -5 77 -98 162 -205 85 -107 160 -202 167
-210 41 -49 373 -472 373 -475 0 -1 -46 -42 -102 -91 -73 -62 -102 -94 -100
-107 4 -33 75 -131 105 -145 18 -9 43 -11 70 -7 37 6 54 20 147 118 148 158
442 451 528 527 91 82 100 102 71 160 -21 42 -65 70 -112 70 -35 0 -79 -27
-165 -102 -18 -15 -36 -28 -40 -28 -5 0 -17 17 -28 38 -12 20 -37 66 -56 102
-33 61 -116 218 -169 320 -13 25 -23 47 -24 50 0 3 -10 25 -21 50 -28 59 -94
210 -104 235 -32 77 -70 185 -76 214 -5 29 -4 33 10 28 10 -4 14 -3 11 2 -3 5
3 16 13 23 11 7 27 28 36 46 22 42 7 97 -37 132 -25 20 -41 25 -85 24 -65 -2
-104 -18 -150 -60 -20 -18 -40 -30 -44 -28 -5 3 -7 0 -6 -6 2 -6 -22 -30 -54
-52 l-56 -41 -61 40 c-34 22 -58 43 -53 48 4 5 2 5 -5 1 -14 -8 -64 14 -57 25
3 5 -2 6 -10 3 -10 -4 -16 -1 -16 7 0 7 -3 10 -6 7 -3 -3 -29 2 -59 13 -29 10
-71 21 -94 25 -22 4 -38 10 -35 15 3 5 4 8 2 8 -2 -1 -28 -6 -58 -10z m611
-401 c6 -18 13 -35 14 -38 24 -62 233 -484 300 -605 31 -55 87 -163 126 -239
l71 -139 -34 -33 -33 -34 -50 62 c-28 34 -62 76 -77 93 -90 100 -466 576 -553
699 l-49 69 29 23 c16 12 33 20 38 17 6 -3 8 -2 4 3 -5 8 178 153 195 154 3 0
12 -15 19 -32z"/>
<path d="M28995 15631 c-3 -5 -2 -12 3 -15 5 -3 9 1 9 9 0 17 -3 19 -12 6z"/>
<path d="M20950 15610 c0 -5 5 -10 11 -10 5 0 7 5 4 10 -3 6 -8 10 -11 10 -2
0 -4 -4 -4 -10z"/>
<path d="M21286 15612 c-3 -5 1 -9 9 -9 8 0 12 4 9 9 -3 4 -7 8 -9 8 -2 0 -6
-4 -9 -8z"/>
<path d="M21335 15610 c3 -5 8 -10 11 -10 2 0 4 5 4 10 0 6 -5 10 -11 10 -5 0
-7 -4 -4 -10z"/>
<path d="M21695 15610 c3 -5 8 -10 11 -10 2 0 4 5 4 10 0 6 -5 10 -11 10 -5 0
-7 -4 -4 -10z"/>
<path d="M21735 15610 c3 -5 8 -10 11 -10 2 0 4 5 4 10 0 6 -5 10 -11 10 -5 0
-7 -4 -4 -10z"/>
<path d="M25535 15610 c3 -5 8 -10 11 -10 2 0 4 5 4 10 0 6 -5 10 -11 10 -5 0
-7 -4 -4 -10z"/>
<path d="M25575 15610 c3 -5 8 -10 11 -10 2 0 4 5 4 10 0 6 -5 10 -11 10 -5 0
-7 -4 -4 -10z"/>
<path d="M25770 15610 c0 -5 5 -10 11 -10 5 0 7 5 4 10 -3 6 -8 10 -11 10 -2
0 -4 -4 -4 -10z"/>
<path d="M25850 15610 c0 -5 5 -10 11 -10 5 0 7 5 4 10 -3 6 -8 10 -11 10 -2
0 -4 -4 -4 -10z"/>
<path d="M25936 15612 c-3 -4 4 -9 15 -9 23 -2 25 3 4 10 -8 4 -16 3 -19 -1z"/>
<path d="M26056 15608 c3 -5 10 -6 15 -3 13 9 11 12 -6 12 -8 0 -12 -4 -9 -9z"/>
<path d="M20320 15590 c-9 -6 -10 -10 -3 -10 6 0 15 5 18 10 8 12 4 12 -15 0z"/>
<path d="M21799 15583 c-13 -16 -12 -17 4 -4 9 7 17 15 17 17 0 8 -8 3 -21
-13z"/>
<path d="M25973 15575 c0 -8 4 -12 9 -9 5 3 6 10 3 15 -9 13 -12 11 -12 -6z"/>
<path d="M20755 15570 c-3 -5 -1 -10 4 -10 6 0 11 5 11 10 0 6 -2 10 -4 10 -3
0 -8 -4 -11 -10z"/>
<path d="M21179 15578 c-5 -18 -6 -38 -1 -34 7 8 12 36 6 36 -2 0 -4 -1 -5 -2z"/>
<path d="M21250 15570 c0 -5 5 -10 11 -10 5 0 7 5 4 10 -3 6 -8 10 -11 10 -2
0 -4 -4 -4 -10z"/>
<path d="M21490 15569 c0 -5 5 -7 10 -4 6 3 10 8 10 11 0 2 -4 4 -10 4 -5 0
-10 -5 -10 -11z"/>
<path d="M21530 15569 c0 -5 5 -7 10 -4 6 3 10 8 10 11 0 2 -4 4 -10 4 -5 0
-10 -5 -10 -11z"/>
<path d="M26006 15572 c-3 -5 1 -9 9 -9 8 0 12 4 9 9 -3 4 -7 8 -9 8 -2 0 -6
-4 -9 -8z"/>
<path d="M26094 15566 c1 -8 5 -18 8 -22 4 -3 5 1 4 10 -1 8 -5 18 -8 22 -4 3
-5 -1 -4 -10z"/>
<path d="M26179 15578 c-5 -18 -6 -38 -1 -34 7 8 12 36 6 36 -2 0 -4 -1 -5 -2z"/>
<path d="M26470 15570 c0 -5 5 -10 11 -10 5 0 7 5 4 10 -3 6 -8 10 -11 10 -2
0 -4 -4 -4 -10z"/>
<path d="M21313 15555 c0 -8 4 -12 9 -9 5 3 6 10 3 15 -9 13 -12 11 -12 -6z"/>
<path d="M25917 15563 c-10 -9 -9 -23 1 -23 5 0 9 7 9 15 0 17 -1 18 -10 8z"/>
<path d="M19390 15550 c0 -5 5 -10 11 -10 5 0 7 5 4 10 -3 6 -8 10 -11 10 -2
0 -4 -4 -4 -10z"/>
<path d="M20934 15546 c1 -8 5 -18 8 -22 4 -3 5 1 4 10 -1 8 -5 18 -8 22 -4 3
-5 -1 -4 -10z"/>
<path d="M21850 15551 c0 -6 4 -13 10 -16 6 -3 7 1 4 9 -7 18 -14 21 -14 7z"/>
<path d="M25270 15556 c0 -2 7 -7 16 -10 8 -3 12 -2 9 4 -6 10 -25 14 -25 6z"/>
<path d="M26415 15550 c-3 -5 -1 -10 4 -10 6 0 11 5 11 10 0 6 -2 10 -4 10 -3
0 -8 -4 -11 -10z"/>
<path d="M26660 15550 c-9 -6 -10 -10 -3 -10 6 0 15 5 18 10 8 12 4 12 -15 0z"/>
<path d="M26750 15550 c0 -5 5 -10 11 -10 5 0 7 5 4 10 -3 6 -8 10 -11 10 -2
0 -4 -4 -4 -10z"/>
<path d="M26835 15551 c-3 -5 -2 -12 3 -15 5 -3 9 1 9 9 0 17 -3 19 -12 6z"/>
<path d="M21046 15532 c-3 -5 1 -9 9 -9 8 0 12 4 9 9 -3 4 -7 8 -9 8 -2 0 -6
-4 -9 -8z"/>
<path d="M21096 15528 c3 -5 10 -6 15 -3 13 9 11 12 -6 12 -8 0 -12 -4 -9 -9z"/>
<path d="M21375 15530 c-3 -5 -1 -10 4 -10 6 0 11 5 11 10 0 6 -2 10 -4 10 -3
0 -8 -4 -11 -10z"/>
<path d="M26246 15532 c-3 -5 1 -9 9 -9 8 0 12 4 9 9 -3 4 -7 8 -9 8 -2 0 -6
-4 -9 -8z"/>
<path d="M26296 15532 c-3 -5 1 -9 9 -9 8 0 12 4 9 9 -3 4 -7 8 -9 8 -2 0 -6
-4 -9 -8z"/>
<path d="M18455 15519 c-4 -6 -5 -12 -2 -15 2 -3 7 2 10 11 7 17 1 20 -8 4z"/>
<path d="M21629 15513 c-13 -16 -12 -17 4 -4 16 13 21 21 13 21 -2 0 -10 -8
-17 -17z"/>
<path d="M20979 15518 c-5 -18 -6 -38 -1 -34 7 8 12 36 6 36 -2 0 -4 -1 -5 -2z"/>
<path d="M21840 15510 c-9 -6 -10 -10 -3 -10 6 0 15 5 18 10 8 12 4 12 -15 0z"/>
<path d="M21995 15500 c10 -11 20 -20 23 -20 3 0 -3 9 -13 20 -10 11 -20 20
-23 20 -3 0 3 -9 13 -20z"/>
<path d="M22034 15504 c1 -8 4 -15 7 -16 2 -2 3 -1 2 1 -2 2 2 9 7 16 7 8 5
12 -4 12 -8 0 -13 -6 -12 -13z"/>
<path d="M22109 15507 c6 -8 7 -18 3 -22 -4 -5 -1 -5 6 -1 10 6 10 11 1 22 -6
8 -14 14 -16 14 -3 0 0 -6 6 -13z"/>
<path d="M22273 15504 c0 -9 4 -11 12 -4 7 5 14 9 16 7 2 -1 3 0 1 2 -7 11
-29 7 -29 -5z"/>
<path d="M22325 15510 c3 -5 8 -10 11 -10 2 0 4 5 4 10 0 6 -5 10 -11 10 -5 0
-7 -4 -4 -10z"/>
<path d="M25495 15511 c-3 -5 -2 -12 3 -15 5 -3 9 1 9 9 0 17 -3 19 -12 6z"/>
<path d="M26070 15509 c0 -5 5 -7 10 -4 6 3 10 8 10 11 0 2 -4 4 -10 4 -5 0
-10 -5 -10 -11z"/>
<path d="M26219 15518 c-5 -18 -6 -38 -1 -34 7 8 12 36 6 36 -2 0 -4 -1 -5 -2z"/>
<path d="M20853 15495 c0 -8 4 -12 9 -9 5 3 6 10 3 15 -9 13 -12 11 -12 -6z"/>
<path d="M21093 15495 c0 -8 4 -12 9 -9 5 3 6 10 3 15 -9 13 -12 11 -12 -6z"/>
<path d="M20755 15490 c-3 -5 -1 -10 4 -10 6 0 11 5 11 10 0 6 -2 10 -4 10 -3
0 -8 -4 -11 -10z"/>
<path d="M20899 15498 c-5 -18 -6 -38 -1 -34 7 8 12 36 6 36 -2 0 -4 -1 -5 -2z"/>
<path d="M21375 15490 c3 -5 8 -10 11 -10 2 0 4 5 4 10 0 6 -5 10 -11 10 -5 0
-7 -4 -4 -10z"/>
<path d="M21410 15490 c0 -5 5 -10 11 -10 5 0 7 5 4 10 -3 6 -8 10 -11 10 -2
0 -4 -4 -4 -10z"/>
<path d="M21455 15490 c-3 -5 -1 -10 4 -10 6 0 11 5 11 10 0 6 -2 10 -4 10 -3
0 -8 -4 -11 -10z"/>
<path d="M22146 15492 c-3 -5 1 -9 9 -9 8 0 12 4 9 9 -3 4 -7 8 -9 8 -2 0 -6
-4 -9 -8z"/>
<path d="M22186 15490 c6 -8 10 -23 8 -33 -1 -11 0 -16 4 -13 12 13 10 36 -6
48 -15 11 -15 11 -6 -2z"/>
<path d="M26756 15483 c-6 -14 -5 -15 5 -6 7 7 10 15 7 18 -3 3 -9 -2 -12 -12z"/>
<path d="M25749 15473 c-13 -16 -12 -17 4 -4 16 13 21 21 13 21 -2 0 -10 -8
-17 -17z"/>
<path d="M19236 15472 c-3 -5 1 -9 9 -9 8 0 12 4 9 9 -3 4 -7 8 -9 8 -2 0 -6
-4 -9 -8z"/>
<path d="M20266 15468 c3 -5 10 -6 15 -3 13 9 11 12 -6 12 -8 0 -12 -4 -9 -9z"/>
<path d="M20690 15469 c0 -5 5 -7 10 -4 6 3 10 8 10 11 0 2 -4 4 -10 4 -5 0
-10 -5 -10 -11z"/>
<path d="M21830 15476 c0 -2 7 -7 16 -10 8 -3 12 -2 9 4 -6 10 -25 14 -25 6z"/>
<path d="M21976 15468 c3 -5 10 -6 15 -3 13 9 11 12 -6 12 -8 0 -12 -4 -9 -9z"/>
<path d="M22440 15475 c0 -2 6 -8 13 -14 10 -8 14 -7 14 2 0 8 -6 14 -14 14
-7 0 -13 -1 -13 -2z"/>
<path d="M22534 15468 c-4 -7 -3 -10 1 -5 5 4 18 -1 29 -10 21 -18 21 -18 2 5
-22 26 -23 26 -32 10z"/>
<path d="M25346 15472 c-2 -4 4 -8 14 -8 10 0 16 4 14 8 -3 4 -9 8 -14 8 -5 0
-11 -4 -14 -8z"/>
<path d="M25460 15476 c0 -2 8 -10 18 -17 15 -13 16 -12 3 4 -13 16 -21 21
-21 13z"/>
<path d="M26070 15476 c0 -2 7 -7 16 -10 8 -3 12 -2 9 4 -6 10 -25 14 -25 6z"/>
<path d="M27507 15469 c7 -7 15 -10 18 -7 3 3 -2 9 -12 12 -14 6 -15 5 -6 -5z"/>
<path d="M16775 15452 c-57 -23 -81 -114 -47 -179 12 -22 27 -32 272 -180 85
-52 157 -99 158 -104 2 -5 8 -9 13 -9 6 0 105 -64 222 -142 116 -79 216 -145
222 -147 5 -2 12 -7 15 -11 3 -4 41 -31 85 -60 43 -29 97 -70 120 -90 69 -63
97 -80 126 -80 93 0 136 92 86 185 -22 41 -49 60 -237 175 -49 30 -90 58 -90
63 0 4 -5 7 -10 7 -6 0 -85 51 -177 113 -91 61 -173 117 -182 122 -209 134
-449 295 -460 308 -11 14 -11 20 -1 32 11 13 7 15 -35 13 -26 -2 -62 -9 -80
-16z"/>
<path d="M22319 15465 c-1 -3 -2 -10 -3 -15 0 -6 -8 -15 -16 -20 -9 -6 -10
-10 -3 -10 13 0 26 17 29 38 2 11 -5 18 -7 7z"/>
<path d="M26635 15461 c-3 -5 -2 -12 3 -15 5 -3 9 1 9 9 0 17 -3 19 -12 6z"/>
<path d="M20816 15448 c3 -4 11 -5 19 -1 21 7 19 12 -4 10 -11 0 -18 -5 -15
-9z"/>
<path d="M20934 15452 c4 -3 14 -7 22 -8 9 -1 13 0 10 4 -4 3 -14 7 -22 8 -9
1 -13 0 -10 -4z"/>
<path d="M21170 15450 c0 -5 5 -10 11 -10 5 0 7 5 4 10 -3 6 -8 10 -11 10 -2
0 -4 -4 -4 -10z"/>
<path d="M21335 15450 c3 -5 8 -10 11 -10 2 0 4 5 4 10 0 6 -5 10 -11 10 -5 0
-7 -4 -4 -10z"/>
<path d="M21370 15450 c0 -5 5 -10 11 -10 5 0 7 5 4 10 -3 6 -8 10 -11 10 -2
0 -4 -4 -4 -10z"/>
<path d="M21410 15450 c0 -5 5 -10 11 -10 5 0 7 5 4 10 -3 6 -8 10 -11 10 -2
0 -4 -4 -4 -10z"/>
<path d="M22266 15448 c3 -4 9 -8 15 -8 5 0 9 4 9 8 0 5 -7 9 -15 9 -8 0 -12
-4 -9 -9z"/>
<path d="M22389 15433 l-24 -28 28 24 c25 23 32 31 24 31 -2 0 -14 -12 -28
-27z"/>
<path d="M24830 15446 c7 -7 13 -7 20 0 6 6 3 10 -10 10 -13 0 -16 -4 -10 -10z"/>
<path d="M24920 15445 c-7 -9 -11 -17 -9 -20 3 -2 10 5 17 15 14 24 10 26 -8
5z"/>
<path d="M25070 15448 c0 -4 4 -8 9 -8 6 0 12 4 15 8 3 5 -1 9 -9 9 -8 0 -15
-4 -15 -9z"/>
<path d="M25116 15451 c-3 -5 2 -15 12 -22 15 -12 16 -12 5 2 -7 9 -10 19 -6
22 3 4 4 7 0 7 -3 0 -8 -4 -11 -9z"/>
<path d="M25970 15450 c0 -5 5 -10 11 -10 5 0 7 5 4 10 -3 6 -8 10 -11 10 -2
0 -4 -4 -4 -10z"/>
<path d="M26010 15449 c0 -5 5 -7 10 -4 6 3 10 8 10 11 0 2 -4 4 -10 4 -5 0
-10 -5 -10 -11z"/>
<path d="M26120 15450 c-12 -7 -10 -9 7 -7 12 0 19 5 17 9 -6 10 -6 10 -24 -2z"/>
<path d="M26214 15446 c1 -8 5 -18 8 -22 4 -3 5 1 4 10 -1 8 -5 18 -8 22 -4 3
-5 -1 -4 -10z"/>
<path d="M26335 15449 c-3 -4 2 -6 10 -5 21 3 28 13 10 13 -9 0 -18 -4 -20 -8z"/>
<path d="M22651 15437 c-8 -10 -7 -14 2 -14 8 0 14 6 14 14 0 7 -1 13 -2 13
-2 0 -8 -6 -14 -13z"/>
<path d="M22791 15439 c-1 -9 7 -23 17 -30 15 -12 16 -12 6 1 -6 8 -14 22 -17
30 -5 13 -6 12 -6 -1z"/>
<path d="M24597 15440 c7 -8 20 -15 29 -16 9 -1 13 1 9 4 -4 4 -10 7 -13 7 -4
0 -14 4 -22 9 -12 7 -13 6 -3 -4z"/>
<path d="M24773 15435 c0 -8 4 -12 9 -9 5 3 6 10 3 15 -9 13 -12 11 -12 -6z"/>
<path d="M20576 15432 c-3 -5 1 -9 9 -9 8 0 12 4 9 9 -3 4 -7 8 -9 8 -2 0 -6
-4 -9 -8z"/>
<path d="M20889 15427 c6 -8 7 -18 3 -22 -4 -5 -1 -5 6 -1 10 6 10 11 1 22 -6
8 -14 14 -16 14 -3 0 0 -6 6 -13z"/>
<path d="M22033 15423 c0 -9 4 -10 14 -2 7 6 13 12 13 14 0 1 -6 2 -13 2 -8 0
-14 -6 -14 -14z"/>
<path d="M22090 15431 c0 -6 4 -13 10 -16 6 -3 7 1 4 9 -7 18 -14 21 -14 7z"/>
<path d="M22434 15401 c0 -22 4 -37 7 -35 7 4 4 62 -3 70 -3 2 -5 -13 -4 -35z"/>
<path d="M22855 15431 c-3 -5 0 -13 6 -17 8 -5 9 -3 4 6 -6 10 -4 12 9 7 10
-4 15 -3 11 3 -8 13 -22 13 -30 1z"/>
<path d="M24499 15423 c-12 -16 -12 -17 2 -6 9 7 20 9 24 5 5 -4 5 -1 1 6 -9
16 -11 15 -27 -5z"/>
<path d="M24551 15417 c-13 -21 -12 -21 5 -5 10 10 16 20 13 22 -3 3 -11 -5
-18 -17z"/>
<path d="M25013 15425 c0 -8 4 -12 9 -9 5 3 6 10 3 15 -9 13 -12 11 -12 -6z"/>
<path d="M25047 15429 c7 -7 15 -10 18 -7 3 3 -2 9 -12 12 -14 6 -15 5 -6 -5z"/>
<path d="M25306 15432 c-3 -5 1 -9 9 -9 8 0 12 4 9 9 -3 4 -7 8 -9 8 -2 0 -6
-4 -9 -8z"/>
<path d="M26915 15431 c-3 -5 -2 -12 3 -15 5 -3 9 1 9 9 0 17 -3 19 -12 6z"/>
<path d="M22590 15426 c0 -2 8 -10 18 -17 15 -13 16 -12 3 4 -13 16 -21 21
-21 13z"/>
<path d="M20716 15405 c-9 -26 -7 -32 5 -12 6 10 9 21 6 23 -2 3 -7 -2 -11
-11z"/>
<path d="M20806 15412 c-3 -5 1 -9 9 -9 8 0 12 4 9 9 -3 4 -7 8 -9 8 -2 0 -6
-4 -9 -8z"/>
<path d="M21035 15409 c-3 -4 2 -6 10 -5 21 3 28 13 10 13 -9 0 -18 -4 -20 -8z"/>
<path d="M21096 15412 c-3 -5 1 -9 9 -9 8 0 12 4 9 9 -3 4 -7 8 -9 8 -2 0 -6
-4 -9 -8z"/>
<path d="M21415 15410 c3 -5 8 -10 11 -10 2 0 4 5 4 10 0 6 -5 10 -11 10 -5 0
-7 -4 -4 -10z"/>
<path d="M21450 15410 c0 -5 5 -10 11 -10 5 0 7 5 4 10 -3 6 -8 10 -11 10 -2
0 -4 -4 -4 -10z"/>
<path d="M21570 15409 c0 -5 5 -7 10 -4 6 3 10 8 10 11 0 2 -4 4 -10 4 -5 0
-10 -5 -10 -11z"/>
<path d="M22705 15409 c-3 -4 2 -6 10 -5 21 3 28 13 10 13 -9 0 -18 -4 -20 -8z"/>
<path d="M23030 15406 c7 -7 13 -7 20 0 6 6 3 10 -10 10 -13 0 -16 -4 -10 -10z"/>
<path d="M24706 15412 c-2 -4 4 -8 14 -8 10 0 16 4 14 8 -3 4 -9 8 -14 8 -5 0
-11 -4 -14 -8z"/>
<path d="M25695 15410 c3 -5 8 -10 11 -10 2 0 4 5 4 10 0 6 -5 10 -11 10 -5 0
-7 -4 -4 -10z"/>
<path d="M25730 15409 c0 -5 5 -7 10 -4 6 3 10 8 10 11 0 2 -4 4 -10 4 -5 0
-10 -5 -10 -11z"/>
<path d="M25775 15410 c3 -5 8 -10 11 -10 2 0 4 5 4 10 0 6 -5 10 -11 10 -5 0
-7 -4 -4 -10z"/>
<path d="M25815 15410 c3 -5 8 -10 11 -10 2 0 4 5 4 10 0 6 -5 10 -11 10 -5 0
-7 -4 -4 -10z"/>
<path d="M25850 15410 c0 -5 5 -10 11 -10 5 0 7 5 4 10 -3 6 -8 10 -11 10 -2
0 -4 -4 -4 -10z"/>
<path d="M25975 15410 c3 -5 8 -10 11 -10 2 0 4 5 4 10 0 6 -5 10 -11 10 -5 0
-7 -4 -4 -10z"/>
<path d="M26246 15408 c3 -5 10 -6 15 -3 13 9 11 12 -6 12 -8 0 -12 -4 -9 -9z"/>
<path d="M26294 15412 c4 -3 14 -7 22 -8 9 -1 13 0 10 4 -4 3 -14 7 -22 8 -9
1 -13 0 -10 -4z"/>
<path d="M26366 15408 c3 -5 10 -6 15 -3 13 9 11 12 -6 12 -8 0 -12 -4 -9 -9z"/>
<path d="M26430 15410 c0 -5 5 -10 11 -10 5 0 7 5 4 10 -3 6 -8 10 -11 10 -2
0 -4 -4 -4 -10z"/>
<path d="M26475 15410 c-3 -5 -1 -10 4 -10 6 0 11 5 11 10 0 6 -2 10 -4 10 -3
0 -8 -4 -11 -10z"/>
<path d="M21910 15406 c0 -2 8 -10 18 -17 15 -13 16 -12 3 4 -13 16 -21 21
-21 13z"/>
<path d="M22570 15406 c0 -2 8 -10 18 -17 15 -13 16 -12 3 4 -13 16 -21 21
-21 13z"/>
<path d="M22646 15395 c-11 -8 -15 -15 -9 -15 6 0 16 7 23 15 16 19 11 19 -14
0z"/>
<path d="M22783 15392 c10 -10 14 -22 10 -27 -5 -4 -2 -5 5 -1 11 6 10 12 -4
27 -9 10 -19 19 -22 19 -3 0 2 -8 11 -18z"/>
<path d="M22844 15392 c23 -26 23 -26 23 -7 0 8 -3 13 -5 10 -3 -3 -12 1 -21
7 -10 8 -9 4 3 -10z"/>
<path d="M23171 15396 c-9 -10 -8 -15 2 -19 8 -3 13 3 13 14 0 23 0 23 -15 5z"/>
<path d="M24124 15388 c-12 -14 -13 -18 -3 -10 9 6 18 10 21 7 2 -3 5 2 5 10
0 19 0 19 -23 -7z"/>
<path d="M24173 15387 c0 -12 1 -16 4 -9 3 9 9 10 17 3 9 -8 13 -6 13 4 0 8
-3 13 -5 10 -3 -3 -10 -1 -16 5 -8 6 -12 2 -13 -13z"/>
<path d="M24249 15393 c-13 -16 -12 -17 4 -4 9 7 17 15 17 17 0 8 -8 3 -21
-13z"/>
<path d="M24329 15393 c-13 -16 -12 -17 4 -4 16 13 21 21 13 21 -2 0 -10 -8
-17 -17z"/>
<path d="M24446 15395 c-18 -14 -18 -14 1 -12 11 0 20 7 20 14 0 7 -1 13 -1
13 -1 0 -9 -7 -20 -15z"/>
<path d="M24515 15400 c-4 -6 -10 -8 -14 -6 -4 3 -8 -1 -8 -9 0 -13 4 -12 19
2 18 16 22 23 14 23 -3 0 -8 -5 -11 -10z"/>
<path d="M24574 15399 c-3 -6 -2 -15 3 -20 5 -5 9 -1 9 11 0 23 -2 24 -12 9z"/>
<path d="M24614 15390 c0 -13 4 -16 10 -10 7 7 7 13 0 20 -6 6 -10 3 -10 -10z"/>
<path d="M24769 15393 c-13 -16 -12 -17 4 -4 16 13 21 21 13 21 -2 0 -10 -8
-17 -17z"/>
<path d="M24919 15408 c-6 -20 -6 -39 0 -42 4 -3 7 6 7 20 0 20 -4 32 -7 22z"/>
<path d="M25310 15406 c0 -2 8 -10 18 -17 15 -13 16 -12 3 4 -13 16 -21 21
-21 13z"/>
<path d="M20767 15389 c7 -7 15 -10 18 -7 3 3 -2 9 -12 12 -14 6 -15 5 -6 -5z"/>
<path d="M22025 15390 c-3 -6 1 -7 9 -4 18 7 21 14 7 14 -6 0 -13 -4 -16 -10z"/>
<path d="M22314 15374 c0 -20 11 -25 11 -6 0 4 3 12 7 18 4 6 1 11 -5 11 -7 0
-13 -11 -13 -23z"/>
<path d="M22510 15388 c0 -6 3 -8 7 -5 3 4 11 2 18 -3 8 -7 12 -6 12 3 0 7 -9
14 -19 14 -10 1 -18 -3 -18 -9z"/>
<path d="M22739 15383 c-13 -16 -12 -17 4 -4 9 7 17 15 17 17 0 8 -8 3 -21
-13z"/>
<path d="M22913 15376 l-18 -21 24 20 c13 11 25 19 28 17 3 -2 7 -2 9 1 2 2
-3 4 -11 4 -8 0 -23 -10 -32 -21z"/>
<path d="M23059 15383 c-13 -17 -13 -17 6 -3 11 8 22 16 24 17 2 2 0 3 -6 3
-6 0 -17 -8 -24 -17z"/>
<path d="M23234 15378 l-19 -23 23 19 c21 18 27 26 19 26 -2 0 -12 -10 -23
-22z"/>
<path d="M24019 15383 c-13 -17 -13 -17 6 -3 11 8 22 16 24 17 2 2 0 3 -6 3
-6 0 -17 -8 -24 -17z"/>
<path d="M24273 15382 c-8 -14 -8 -19 1 -19 7 0 13 9 13 19 1 10 1 18 0 18 -1
0 -7 -8 -14 -18z"/>
<path d="M24357 15382 c-15 -16 -15 -19 -2 -19 8 0 13 3 10 5 -3 3 0 11 6 19
17 20 5 16 -14 -5z"/>
<path d="M25015 15389 c-3 -4 2 -6 10 -5 21 3 28 13 10 13 -9 0 -18 -4 -20 -8z"/>
<path d="M25076 15388 c3 -5 10 -6 15 -3 13 9 11 12 -6 12 -8 0 -12 -4 -9 -9z"/>
<path d="M25187 15389 c7 -7 15 -10 18 -7 3 3 -2 9 -12 12 -14 6 -15 5 -6 -5z"/>
<path d="M25400 15390 c-9 -6 -10 -10 -3 -10 6 0 15 5 18 10 8 12 4 12 -15 0z"/>
<path d="M25436 15392 c-3 -5 1 -9 9 -9 8 0 12 4 9 9 -3 4 -7 8 -9 8 -2 0 -6
-4 -9 -8z"/>
<path d="M26174 15386 c1 -8 5 -18 8 -22 4 -3 5 1 4 10 -1 8 -5 18 -8 22 -4 3
-5 -1 -4 -10z"/>
<path d="M20855 15381 c-3 -5 -2 -12 3 -15 5 -3 9 1 9 9 0 17 -3 19 -12 6z"/>
<path d="M23470 15386 c0 -2 8 -10 18 -17 15 -13 16 -12 3 4 -13 16 -21 21
-21 13z"/>
<path d="M23754 15365 c1 -14 8 -30 16 -37 12 -11 12 -10 3 2 -6 8 -9 23 -8
32 2 10 0 20 -4 23 -4 2 -7 -7 -7 -20z"/>
<path d="M23953 15377 c0 -8 6 -14 14 -14 9 0 10 4 2 14 -6 7 -12 13 -14 13
-1 0 -2 -6 -2 -13z"/>
<path d="M19466 15373 c-4 -4 -26 -6 -50 -4 -70 4 -116 -52 -116 -139 0 -76
15 -91 120 -124 86 -28 145 -71 226 -167 100 -118 137 -126 200 -43 43 56 41
122 -5 189 -65 94 -164 178 -279 237 -51 25 -87 48 -80 51 7 3 8 6 2 6 -6 1
-14 -2 -18 -6z"/>
<path d="M20975 15369 c-3 -4 2 -6 10 -5 21 3 28 13 10 13 -9 0 -18 -4 -20 -8z"/>
<path d="M21170 15369 c0 -5 5 -7 10 -4 6 3 10 8 10 11 0 2 -4 4 -10 4 -5 0
-10 -5 -10 -11z"/>
<path d="M21215 15370 c-3 -5 -1 -10 4 -10 6 0 11 5 11 10 0 6 -2 10 -4 10 -3
0 -8 -4 -11 -10z"/>
<path d="M21410 15369 c0 -5 5 -7 10 -4 6 3 10 8 10 11 0 2 -4 4 -10 4 -5 0
-10 -5 -10 -11z"/>
<path d="M21455 15370 c3 -5 8 -10 11 -10 2 0 4 5 4 10 0 6 -5 10 -11 10 -5 0
-7 -4 -4 -10z"/>
<path d="M22820 15376 c0 -2 8 -10 18 -17 15 -13 16 -12 3 4 -13 16 -21 21
-21 13z"/>
<path d="M23149 15368 c11 -15 11 -21 0 -35 -12 -17 -12 -17 6 0 19 17 19 17
0 35 -18 16 -18 16 -6 0z"/>
<path d="M23269 15367 c6 -8 7 -18 3 -22 -4 -5 -1 -5 6 -1 10 6 10 11 1 22 -6
8 -14 14 -16 14 -3 0 0 -6 6 -13z"/>
<path d="M23346 15372 c-2 -4 4 -8 14 -8 10 0 16 4 14 8 -3 4 -9 8 -14 8 -5 0
-11 -4 -14 -8z"/>
<path d="M23440 15365 c-7 -8 -16 -13 -20 -10 -5 3 -11 2 -14 -3 -2 -4 6 -8
19 -8 14 0 22 2 20 5 -3 2 0 10 6 18 6 7 9 13 6 13 -2 0 -10 -7 -17 -15z"/>
<path d="M23788 15368 c8 -10 10 -23 6 -30 -6 -10 -5 -11 8 -1 8 7 17 11 20 8
2 -3 5 2 5 10 0 8 -4 12 -9 9 -5 -3 -17 0 -26 8 -15 12 -16 11 -4 -4z"/>
<path d="M24227 15369 c7 -7 15 -10 18 -7 3 3 -2 9 -12 12 -14 6 -15 5 -6 -5z"/>
<path d="M24540 15376 c0 -2 8 -10 18 -17 15 -13 16 -12 3 4 -13 16 -21 21
-21 13z"/>
<path d="M25040 15365 c-7 -8 -17 -12 -23 -8 -6 4 -7 1 -3 -6 6 -9 13 -8 27 5
10 9 19 19 19 21 0 7 -8 2 -20 -12z"/>
<path d="M25690 15370 c0 -5 5 -10 11 -10 5 0 7 5 4 10 -3 6 -8 10 -11 10 -2
0 -4 -4 -4 -10z"/>
<path d="M25730 15369 c0 -5 5 -7 10 -4 6 3 10 8 10 11 0 2 -4 4 -10 4 -5 0
-10 -5 -10 -11z"/>
<path d="M25775 15370 c-3 -5 -1 -10 4 -10 6 0 11 5 11 10 0 6 -2 10 -4 10 -3
0 -8 -4 -11 -10z"/>
<path d="M26016 15371 c-3 -5 2 -15 12 -22 15 -12 16 -12 5 2 -7 9 -10 19 -6
22 3 4 4 7 0 7 -3 0 -8 -4 -11 -9z"/>
<path d="M26095 15369 c-3 -4 2 -6 10 -5 21 3 28 13 10 13 -9 0 -18 -4 -20 -8z"/>
<path d="M22937 15363 c-10 -9 -9 -23 1 -23 5 0 9 7 9 15 0 17 -1 18 -10 8z"/>
<path d="M23574 15356 c1 -8 5 -18 8 -22 4 -3 5 1 4 10 -1 8 -5 18 -8 22 -4 3
-5 -1 -4 -10z"/>
<path d="M23899 15368 c-5 -18 -6 -38 -1 -34 7 8 12 36 6 36 -2 0 -4 -1 -5 -2z"/>
<path d="M24135 15360 c-4 -6 -12 -7 -18 -4 -7 4 -9 4 -5 -1 4 -4 2 -15 -4
-24 -7 -9 0 -5 15 8 15 14 27 26 27 28 0 7 -9 3 -15 -7z"/>
<path d="M24413 15355 c0 -8 4 -15 9 -15 4 0 8 4 8 9 0 6 -4 12 -8 15 -5 3 -9
-1 -9 -9z"/>
<path d="M24454 15359 c-3 -6 -2 -15 3 -20 5 -5 9 -1 9 11 0 23 -2 24 -12 9z"/>
<path d="M24634 15359 c-3 -6 -2 -15 3 -20 5 -5 9 -1 9 11 0 23 -2 24 -12 9z"/>
<path d="M20795 15350 c-3 -5 -1 -10 4 -10 6 0 11 5 11 10 0 6 -2 10 -4 10 -3
0 -8 -4 -11 -10z"/>
<path d="M21787 15349 c7 -7 15 -10 18 -7 3 3 -2 9 -12 12 -14 6 -15 5 -6 -5z"/>
<path d="M22966 15349 c4 -8 30 -6 38 2 3 3 -5 5 -19 5 -13 0 -22 -3 -19 -7z"/>
<path d="M24527 15349 c7 -7 15 -10 18 -7 3 3 -2 9 -12 12 -14 6 -15 5 -6 -5z"/>
<path d="M24686 15348 c3 -5 10 -6 15 -3 13 9 11 12 -6 12 -8 0 -12 -4 -9 -9z"/>
<path d="M25196 15343 c-6 -14 -5 -15 5 -6 7 7 10 15 7 18 -3 3 -9 -2 -12 -12z"/>
<path d="M25220 15356 c0 -2 8 -10 18 -17 15 -13 16 -12 3 4 -13 16 -21 21
-21 13z"/>
<path d="M25376 15348 c3 -5 10 -6 15 -3 13 9 11 12 -6 12 -8 0 -12 -4 -9 -9z"/>
<path d="M25560 15350 c-9 -6 -10 -10 -3 -10 6 0 15 5 18 10 8 12 4 12 -15 0z"/>
<path d="M21015 15341 c-3 -5 -2 -12 3 -15 5 -3 9 1 9 9 0 17 -3 19 -12 6z"/>
<path d="M21335 15341 c-3 -5 -2 -12 3 -15 5 -3 9 1 9 9 0 17 -3 19 -12 6z"/>
<path d="M22593 15335 c0 -8 4 -12 9 -9 5 3 6 10 3 15 -9 13 -12 11 -12 -6z"/>
<path d="M24234 15336 c1 -8 5 -18 8 -22 4 -3 5 1 4 10 -1 8 -5 18 -8 22 -4 3
-5 -1 -4 -10z"/>
<path d="M25695 15341 c-3 -5 -2 -12 3 -15 5 -3 9 1 9 9 0 17 -3 19 -12 6z"/>
<path d="M21296 15332 c-3 -5 1 -9 9 -9 8 0 12 4 9 9 -3 4 -7 8 -9 8 -2 0 -6
-4 -9 -8z"/>
<path d="M21454 15326 c1 -8 5 -18 8 -22 4 -3 5 1 4 10 -1 8 -5 18 -8 22 -4 3
-5 -1 -4 -10z"/>
<path d="M21495 15330 c-3 -5 -1 -10 4 -10 6 0 11 5 11 10 0 6 -2 10 -4 10 -3
0 -8 -4 -11 -10z"/>
<path d="M21530 15329 c0 -5 5 -7 10 -4 6 3 10 8 10 11 0 2 -4 4 -10 4 -5 0
-10 -5 -10 -11z"/>
<path d="M21570 15330 c0 -5 5 -10 11 -10 5 0 7 5 4 10 -3 6 -8 10 -11 10 -2
0 -4 -4 -4 -10z"/>
<path d="M22999 15323 c-13 -16 -12 -17 4 -4 9 7 17 15 17 17 0 8 -8 3 -21
-13z"/>
<path d="M23036 15328 c3 -5 10 -6 15 -3 13 9 11 12 -6 12 -8 0 -12 -4 -9 -9z"/>
<path d="M23106 15328 c3 -5 10 -6 15 -3 13 9 11 12 -6 12 -8 0 -12 -4 -9 -9z"/>
<path d="M23280 15330 c-9 -6 -10 -10 -3 -10 6 0 15 5 18 10 8 12 4 12 -15 0z"/>
<path d="M23350 15325 c5 -7 6 -16 2 -21 -4 -5 -3 -5 2 -1 15 12 15 34 0 34
-9 0 -11 -4 -4 -12z"/>
<path d="M23391 15323 c7 -12 15 -20 18 -17 3 2 -3 12 -13 22 -17 16 -18 16
-5 -5z"/>
<path d="M23632 15321 c7 -9 13 -18 15 -20 1 -2 1 5 0 16 0 11 -7 20 -14 20
-10 0 -10 -4 -1 -16z"/>
<path d="M23921 15326 c-9 -11 -9 -16 1 -22 7 -4 10 -4 6 1 -4 4 -3 14 3 22 6
7 9 13 6 13 -2 0 -10 -6 -16 -14z"/>
<path d="M23990 15326 c7 -7 13 -7 20 0 6 6 3 10 -10 10 -13 0 -16 -4 -10 -10z"/>
<path d="M24067 15329 c7 -7 15 -10 18 -7 3 3 -2 9 -12 12 -14 6 -15 5 -6 -5z"/>
<path d="M24354 15315 c0 -13 3 -22 7 -19 8 4 6 30 -2 38 -3 3 -5 -5 -5 -19z"/>
<path d="M26256 15332 c-2 -4 -1 -14 4 -22 7 -11 9 -9 7 8 -1 24 -3 26 -11 14z"/>
<path d="M21955 15321 c-3 -5 -2 -12 3 -15 5 -3 9 1 9 9 0 17 -3 19 -12 6z"/>
<path d="M23809 15313 c-13 -16 -12 -17 4 -4 16 13 21 21 13 21 -2 0 -10 -8
-17 -17z"/>
<path d="M24555 15321 c-3 -5 -2 -12 3 -15 5 -3 9 1 9 9 0 17 -3 19 -12 6z"/>
<path d="M25756 15317 c3 -10 9 -15 12 -12 3 3 0 11 -7 18 -10 9 -11 8 -5 -6z"/>
<path d="M19740 15316 c0 -2 8 -10 18 -17 15 -13 16 -12 3 4 -13 16 -21 21
-21 13z"/>
<path d="M21090 15309 c0 -5 5 -7 10 -4 6 3 10 8 10 11 0 2 -4 4 -10 4 -5 0
-10 -5 -10 -11z"/>
<path d="M21795 15310 c-3 -5 -1 -10 4 -10 6 0 11 5 11 10 0 6 -2 10 -4 10 -3
0 -8 -4 -11 -10z"/>
<path d="M21835 15310 c3 -5 8 -10 11 -10 2 0 4 5 4 10 0 6 -5 10 -11 10 -5 0
-7 -4 -4 -10z"/>
<path d="M21870 15309 c0 -5 5 -7 10 -4 6 3 10 8 10 11 0 2 -4 4 -10 4 -5 0
-10 -5 -10 -11z"/>
<path d="M21906 15312 c-2 -4 4 -8 14 -8 10 0 16 4 14 8 -3 4 -9 8 -14 8 -5 0
-11 -4 -14 -8z"/>
<path d="M21987 15309 c7 -7 15 -10 18 -7 3 3 -2 9 -12 12 -14 6 -15 5 -6 -5z"/>
<path d="M22270 15306 c7 -7 13 -7 20 0 6 6 3 10 -10 10 -13 0 -16 -4 -10 -10z"/>
<path d="M22479 15303 c-13 -16 -12 -17 4 -4 16 13 21 21 13 21 -2 0 -10 -8
-17 -17z"/>
<path d="M22910 15316 c0 -2 7 -7 16 -10 8 -3 12 -2 9 4 -6 10 -25 14 -25 6z"/>
<path d="M23075 15310 c-3 -5 -1 -10 4 -10 6 0 11 5 11 10 0 6 -2 10 -4 10 -3
0 -8 -4 -11 -10z"/>
<path d="M23315 15310 c-3 -5 -1 -10 4 -10 6 0 11 5 11 10 0 6 -2 10 -4 10 -3
0 -8 -4 -11 -10z"/>
<path d="M23533 15303 c0 -9 4 -10 12 -3 7 5 15 7 18 3 4 -3 7 -1 7 5 0 6 -8
10 -18 9 -10 0 -19 -7 -19 -14z"/>
<path d="M23839 15318 c-5 -18 -6 -38 -1 -34 7 8 12 36 6 36 -2 0 -4 -1 -5 -2z"/>
<path d="M23955 15310 c-3 -5 -1 -10 4 -10 6 0 11 5 11 10 0 6 -2 10 -4 10 -3
0 -8 -4 -11 -10z"/>
<path d="M24030 15310 c0 -5 5 -10 11 -10 5 0 7 5 4 10 -3 6 -8 10 -11 10 -2
0 -4 -4 -4 -10z"/>
<path d="M24615 15310 c3 -5 8 -10 11 -10 2 0 4 5 4 10 0 6 -5 10 -11 10 -5 0
-7 -4 -4 -10z"/>
<path d="M24785 15309 c-3 -4 2 -6 10 -5 21 3 28 13 10 13 -9 0 -18 -4 -20 -8z"/>
<path d="M25550 15310 c0 -5 5 -10 11 -10 5 0 7 5 4 10 -3 6 -8 10 -11 10 -2
0 -4 -4 -4 -10z"/>
<path d="M26636 15312 c-3 -5 1 -9 9 -9 8 0 12 4 9 9 -3 4 -7 8 -9 8 -2 0 -6
-4 -9 -8z"/>
<path d="M27715 15310 c3 -5 8 -10 11 -10 2 0 4 5 4 10 0 6 -5 10 -11 10 -5 0
-7 -4 -4 -10z"/>
<path d="M20993 15295 c0 -8 4 -12 9 -9 5 3 6 10 3 15 -9 13 -12 11 -12 -6z"/>
<path d="M22719 15308 c-5 -18 -6 -38 -1 -34 7 8 12 36 6 36 -2 0 -4 -1 -5 -2z"/>
<path d="M20793 15285 c0 -8 4 -12 9 -9 4 3 8 9 8 15 0 5 -4 9 -8 9 -5 0 -9
-7 -9 -15z"/>
<path d="M21235 15290 c3 -5 8 -10 11 -10 2 0 4 5 4 10 0 6 -5 10 -11 10 -5 0
-7 -4 -4 -10z"/>
<path d="M21333 15285 c0 -8 4 -12 9 -9 5 3 6 10 3 15 -9 13 -12 11 -12 -6z"/>
<path d="M21416 15288 c3 -5 10 -6 15 -3 13 9 11 12 -6 12 -8 0 -12 -4 -9 -9z"/>
<path d="M21690 15289 c0 -5 5 -7 10 -4 6 3 10 8 10 11 0 2 -4 4 -10 4 -5 0
-10 -5 -10 -11z"/>
<path d="M23110 15288 c0 -4 4 -8 9 -8 6 0 12 4 15 8 3 5 -1 9 -9 9 -8 0 -15
-4 -15 -9z"/>
<path d="M23156 15291 c-3 -5 2 -15 12 -22 15 -12 16 -12 5 2 -7 9 -10 19 -6
22 3 4 4 7 0 7 -3 0 -8 -4 -11 -9z"/>
<path d="M23430 15288 c0 -4 4 -8 9 -8 6 0 12 4 15 8 3 5 -1 9 -9 9 -8 0 -15
-4 -15 -9z"/>
<path d="M24427 15289 c7 -7 15 -10 18 -7 3 3 -2 9 -12 12 -14 6 -15 5 -6 -5z"/>
<path d="M24747 15289 c7 -7 15 -10 18 -7 3 3 -2 9 -12 12 -14 6 -15 5 -6 -5z"/>
<path d="M25290 15290 c0 -5 5 -10 11 -10 5 0 7 5 4 10 -3 6 -8 10 -11 10 -2
0 -4 -4 -4 -10z"/>
<path d="M25455 15290 c-3 -5 -1 -10 4 -10 6 0 11 5 11 10 0 6 -2 10 -4 10 -3
0 -8 -4 -11 -10z"/>
<path d="M25655 15289 c-3 -4 2 -6 10 -5 21 3 28 13 10 13 -9 0 -18 -4 -20 -8z"/>
<path d="M25813 15285 c0 -8 4 -12 9 -9 5 3 6 10 3 15 -9 13 -12 11 -12 -6z"/>
<path d="M25896 15292 c-3 -5 1 -9 9 -9 8 0 12 4 9 9 -3 4 -7 8 -9 8 -2 0 -6
-4 -9 -8z"/>
<path d="M26035 15290 c3 -5 8 -10 11 -10 2 0 4 5 4 10 0 6 -5 10 -11 10 -5 0
-7 -4 -4 -10z"/>
<path d="M23474 15276 c1 -8 5 -18 8 -22 4 -3 5 1 4 10 -1 8 -5 18 -8 22 -4 3
-5 -1 -4 -10z"/>
<path d="M24616 15277 c3 -10 9 -15 12 -12 3 3 0 11 -7 18 -10 9 -11 8 -5 -6z"/>
<path d="M21287 15269 c7 -7 15 -10 18 -7 3 3 -2 9 -12 12 -14 6 -15 5 -6 -5z"/>
<path d="M22955 15271 c-3 -5 -2 -12 3 -15 5 -3 9 1 9 9 0 17 -3 19 -12 6z"/>
<path d="M23196 15268 c3 -5 10 -6 15 -3 13 9 11 12 -6 12 -8 0 -12 -4 -9 -9z"/>
<path d="M23556 15263 c-6 -14 -5 -15 5 -6 7 7 10 15 7 18 -3 3 -9 -2 -12 -12z"/>
<path d="M23580 15276 c0 -2 8 -10 18 -17 15 -13 16 -12 3 4 -13 16 -21 21
-21 13z"/>
<path d="M23846 15272 c-3 -5 1 -9 9 -9 8 0 12 4 9 9 -3 4 -7 8 -9 8 -2 0 -6
-4 -9 -8z"/>
<path d="M24154 15272 c4 -3 14 -7 22 -8 9 -1 13 0 10 4 -4 3 -14 7 -22 8 -9
1 -13 0 -10 -4z"/>
<path d="M21575 15261 c-3 -5 -2 -12 3 -15 5 -3 9 1 9 9 0 17 -3 19 -12 6z"/>
<path d="M23669 15253 c-13 -16 -12 -17 4 -4 16 13 21 21 13 21 -2 0 -10 -8
-17 -17z"/>
<path d="M21233 15245 c0 -8 4 -12 9 -9 5 3 6 10 3 15 -9 13 -12 11 -12 -6z"/>
<path d="M21790 15255 c0 -7 30 -13 34 -7 3 4 -4 9 -15 9 -10 1 -19 0 -19 -2z"/>
<path d="M21935 15250 c3 -5 8 -10 11 -10 2 0 4 5 4 10 0 6 -5 10 -11 10 -5 0
-7 -4 -4 -10z"/>
<path d="M22016 15252 c-3 -5 1 -9 9 -9 8 0 12 4 9 9 -3 4 -7 8 -9 8 -2 0 -6
-4 -9 -8z"/>
<path d="M22055 15250 c3 -5 8 -10 11 -10 2 0 4 5 4 10 0 6 -5 10 -11 10 -5 0
-7 -4 -4 -10z"/>
<path d="M22335 15250 c3 -5 8 -10 11 -10 2 0 4 5 4 10 0 6 -5 10 -11 10 -5 0
-7 -4 -4 -10z"/>
<path d="M22370 15249 c0 -5 5 -7 10 -4 6 3 10 8 10 11 0 2 -4 4 -10 4 -5 0
-10 -5 -10 -11z"/>
<path d="M22410 15249 c0 -5 5 -7 10 -4 6 3 10 8 10 11 0 2 -4 4 -10 4 -5 0
-10 -5 -10 -11z"/>
<path d="M22770 15249 c0 -5 5 -7 10 -4 6 3 10 8 10 11 0 2 -4 4 -10 4 -5 0
-10 -5 -10 -11z"/>
<path d="M22855 15250 c3 -5 8 -10 11 -10 2 0 4 5 4 10 0 6 -5 10 -11 10 -5 0
-7 -4 -4 -10z"/>
<path d="M24690 15249 c0 -5 5 -7 10 -4 6 3 10 8 10 11 0 2 -4 4 -10 4 -5 0
-10 -5 -10 -11z"/>
<path d="M24895 15250 c3 -5 8 -10 11 -10 2 0 4 5 4 10 0 6 -5 10 -11 10 -5 0
-7 -4 -4 -10z"/>
<path d="M24935 15250 c3 -5 8 -10 11 -10 2 0 4 5 4 10 0 6 -5 10 -11 10 -5 0
-7 -4 -4 -10z"/>
<path d="M24975 15250 c3 -5 8 -10 11 -10 2 0 4 5 4 10 0 6 -5 10 -11 10 -5 0
-7 -4 -4 -10z"/>
<path d="M25010 15250 c0 -5 5 -10 11 -10 5 0 7 5 4 10 -3 6 -8 10 -11 10 -2
0 -4 -4 -4 -10z"/>
<path d="M25130 15249 c0 -5 5 -7 10 -4 6 3 10 8 10 11 0 2 -4 4 -10 4 -5 0
-10 -5 -10 -11z"/>
<path d="M25170 15250 c0 -5 5 -10 11 -10 5 0 7 5 4 10 -3 6 -8 10 -11 10 -2
0 -4 -4 -4 -10z"/>
<path d="M25410 15249 c0 -5 5 -7 10 -4 6 3 10 8 10 11 0 2 -4 4 -10 4 -5 0
-10 -5 -10 -11z"/>
<path d="M25535 15249 c-3 -4 2 -6 10 -5 21 3 28 13 10 13 -9 0 -18 -4 -20 -8z"/>
<path d="M25635 15249 c-3 -4 2 -6 10 -5 21 3 28 13 10 13 -9 0 -18 -4 -20 -8z"/>
<path d="M25856 15252 c-3 -4 4 -9 15 -9 23 -2 25 3 4 10 -8 4 -16 3 -19 -1z"/>
<path d="M26119 15258 c-5 -18 -6 -38 -1 -34 7 8 12 36 6 36 -2 0 -4 -1 -5 -2z"/>
<path d="M22913 15235 c0 -8 4 -12 9 -9 5 3 6 10 3 15 -9 13 -12 11 -12 -6z"/>
<path d="M23430 15246 c0 -2 8 -10 18 -17 15 -13 16 -12 3 4 -13 16 -21 21
-21 13z"/>
<path d="M22079 15223 c-13 -16 -12 -17 4 -4 9 7 17 15 17 17 0 8 -8 3 -21
-13z"/>
<path d="M22879 15223 c-13 -16 -12 -17 4 -4 9 7 17 15 17 17 0 8 -8 3 -21
-13z"/>
<path d="M22945 15229 c-3 -4 2 -6 10 -5 21 3 28 13 10 13 -9 0 -18 -4 -20 -8z"/>
<path d="M23100 15236 c0 -2 8 -10 18 -17 15 -13 16 -12 3 4 -13 16 -21 21
-21 13z"/>
<path d="M24559 15223 c-13 -16 -12 -17 4 -4 16 13 21 21 13 21 -2 0 -10 -8
-17 -17z"/>
<path d="M21710 15209 c0 -5 5 -7 10 -4 6 3 10 8 10 11 0 2 -4 4 -10 4 -5 0
-10 -5 -10 -11z"/>
<path d="M21895 15211 c-3 -5 -2 -12 3 -15 5 -3 9 1 9 9 0 17 -3 19 -12 6z"/>
<path d="M22114 15212 c4 -3 14 -7 22 -8 9 -1 13 0 10 4 -4 3 -14 7 -22 8 -9
1 -13 0 -10 -4z"/>
<path d="M22290 15209 c0 -5 5 -7 10 -4 6 3 10 8 10 11 0 2 -4 4 -10 4 -5 0
-10 -5 -10 -11z"/>
<path d="M22336 15212 c-3 -4 4 -9 15 -9 23 -2 25 3 4 10 -8 4 -16 3 -19 -1z"/>
<path d="M22450 15209 c0 -5 5 -7 10 -4 6 3 10 8 10 11 0 2 -4 4 -10 4 -5 0
-10 -5 -10 -11z"/>
<path d="M22570 15210 c0 -5 5 -10 11 -10 5 0 7 5 4 10 -3 6 -8 10 -11 10 -2
0 -4 -4 -4 -10z"/>
<path d="M22610 15209 c0 -5 5 -7 10 -4 6 3 10 8 10 11 0 2 -4 4 -10 4 -5 0
-10 -5 -10 -11z"/>
<path d="M22730 15210 c0 -5 5 -10 11 -10 5 0 7 5 4 10 -3 6 -8 10 -11 10 -2
0 -4 -4 -4 -10z"/>
<path d="M22770 15209 c0 -5 5 -7 10 -4 6 3 10 8 10 11 0 2 -4 4 -10 4 -5 0
-10 -5 -10 -11z"/>
<path d="M23215 15210 c-3 -5 -1 -10 4 -10 6 0 11 5 11 10 0 6 -2 10 -4 10 -3
0 -8 -4 -11 -10z"/>
<path d="M23250 15209 c0 -5 5 -7 10 -4 6 3 10 8 10 11 0 2 -4 4 -10 4 -5 0
-10 -5 -10 -11z"/>
<path d="M23890 15209 c0 -5 5 -7 10 -4 6 3 10 8 10 11 0 2 -4 4 -10 4 -5 0
-10 -5 -10 -11z"/>
<path d="M24170 15210 c0 -5 5 -10 11 -10 5 0 7 5 4 10 -3 6 -8 10 -11 10 -2
0 -4 -4 -4 -10z"/>
<path d="M24210 15210 c0 -5 5 -10 11 -10 5 0 7 5 4 10 -3 6 -8 10 -11 10 -2
0 -4 -4 -4 -10z"/>
<path d="M24370 15210 c0 -5 5 -10 11 -10 5 0 7 5 4 10 -3 6 -8 10 -11 10 -2
0 -4 -4 -4 -10z"/>
<path d="M24690 15209 c0 -5 5 -7 10 -4 6 3 10 8 10 11 0 2 -4 4 -10 4 -5 0
-10 -5 -10 -11z"/>
<path d="M24770 15210 c0 -5 5 -10 11 -10 5 0 7 5 4 10 -3 6 -8 10 -11 10 -2
0 -4 -4 -4 -10z"/>
<path d="M24895 15210 c-3 -5 -1 -10 4 -10 6 0 11 5 11 10 0 6 -2 10 -4 10 -3
0 -8 -4 -11 -10z"/>
<path d="M25255 15210 c-3 -5 -1 -10 4 -10 6 0 11 5 11 10 0 6 -2 10 -4 10 -3
0 -8 -4 -11 -10z"/>
<path d="M25294 15206 c1 -8 5 -18 8 -22 4 -3 5 1 4 10 -1 8 -5 18 -8 22 -4 3
-5 -1 -4 -10z"/>
<path d="M25470 15215 c0 -7 30 -13 34 -7 3 4 -4 9 -15 9 -10 1 -19 0 -19 -2z"/>
<path d="M21350 15206 c0 -2 8 -10 18 -17 15 -13 16 -12 3 4 -13 16 -21 21
-21 13z"/>
<path d="M23593 15195 c0 -8 4 -12 9 -9 5 3 6 10 3 15 -9 13 -12 11 -12 -6z"/>
<path d="M25675 15201 c-3 -5 -2 -12 3 -15 5 -3 9 1 9 9 0 17 -3 19 -12 6z"/>
<path d="M22950 15196 c0 -2 7 -7 16 -10 8 -3 12 -2 9 4 -6 10 -25 14 -25 6z"/>
<path d="M23946 15192 c-3 -5 1 -9 9 -9 8 0 12 4 9 9 -3 4 -7 8 -9 8 -2 0 -6
-4 -9 -8z"/>
<path d="M25410 15189 c0 -5 5 -7 10 -4 6 3 10 8 10 11 0 2 -4 4 -10 4 -5 0
-10 -5 -10 -11z"/>
<path d="M25565 15190 c-3 -6 1 -7 9 -4 18 7 21 14 7 14 -6 0 -13 -4 -16 -10z"/>
<path d="M25611 15197 c2 -1 13 -9 24 -17 19 -14 19 -14 6 3 -7 9 -18 17 -24
17 -6 0 -8 -1 -6 -3z"/>
<path d="M25986 15188 c3 -5 10 -6 15 -3 13 9 11 12 -6 12 -8 0 -12 -4 -9 -9z"/>
<path d="M26996 15192 c-3 -5 1 -9 9 -9 8 0 12 4 9 9 -3 4 -7 8 -9 8 -2 0 -6
-4 -9 -8z"/>
<path d="M22075 15179 c-4 -6 -5 -12 -2 -15 2 -3 7 2 10 11 7 17 1 20 -8 4z"/>
<path d="M22534 15168 c-4 -7 -4 -10 1 -6 4 4 15 2 24 -5 14 -11 14 -10 2 6
-16 20 -18 21 -27 5z"/>
<path d="M22639 15163 c-12 -16 -12 -17 2 -6 9 7 20 9 24 5 5 -4 5 -1 1 6 -9
16 -11 15 -27 -5z"/>
<path d="M22936 15172 c-3 -4 4 -9 15 -9 23 -2 25 3 4 10 -8 4 -16 3 -19 -1z"/>
<path d="M23120 15170 c-12 -7 -10 -9 7 -7 12 0 19 5 17 9 -6 10 -6 10 -24 -2z"/>
<path d="M23194 15172 c4 -3 14 -7 22 -8 9 -1 13 0 10 4 -4 3 -14 7 -22 8 -9
1 -13 0 -10 -4z"/>
<path d="M23686 15168 c3 -5 10 -6 15 -3 13 9 11 12 -6 12 -8 0 -12 -4 -9 -9z"/>
<path d="M23735 15170 c3 -5 8 -10 11 -10 2 0 4 5 4 10 0 6 -5 10 -11 10 -5 0
-7 -4 -4 -10z"/>
<path d="M23850 15169 c0 -5 5 -7 10 -4 6 3 10 8 10 11 0 2 -4 4 -10 4 -5 0
-10 -5 -10 -11z"/>
<path d="M24090 15169 c0 -5 5 -7 10 -4 6 3 10 8 10 11 0 2 -4 4 -10 4 -5 0
-10 -5 -10 -11z"/>
<path d="M24154 15172 c4 -3 14 -7 22 -8 9 -1 13 0 10 4 -4 3 -14 7 -22 8 -9
1 -13 0 -10 -4z"/>
<path d="M24470 15175 c0 -7 30 -13 34 -7 3 4 -4 9 -15 9 -10 1 -19 0 -19 -2z"/>
<path d="M24616 15168 c3 -5 10 -6 15 -3 13 9 11 12 -6 12 -8 0 -12 -4 -9 -9z"/>
<path d="M24694 15168 c-4 -7 -4 -10 1 -6 4 4 15 2 24 -5 14 -11 14 -10 2 6
-16 20 -18 21 -27 5z"/>
<path d="M25046 15172 c-3 -5 1 -9 9 -9 8 0 12 4 9 9 -3 4 -7 8 -9 8 -2 0 -6
-4 -9 -8z"/>
<path d="M25110 15170 c0 -5 5 -10 10 -10 6 0 10 5 10 10 0 6 -4 10 -10 10 -5
0 -10 -4 -10 -10z"/>
<path d="M21793 15155 c0 -8 4 -12 9 -9 5 3 6 10 3 15 -9 13 -12 11 -12 -6z"/>
<path d="M22366 15152 c-3 -5 1 -9 9 -9 8 0 12 4 9 9 -3 4 -7 8 -9 8 -2 0 -6
-4 -9 -8z"/>
<path d="M22895 15150 c-3 -5 -1 -10 4 -10 6 0 11 5 11 10 0 6 -2 10 -4 10 -3
0 -8 -4 -11 -10z"/>
<path d="M23010 15150 c0 -5 5 -10 11 -10 5 0 7 5 4 10 -3 6 -8 10 -11 10 -2
0 -4 -4 -4 -10z"/>
<path d="M23054 15146 c1 -8 5 -18 8 -22 4 -3 5 1 4 10 -1 8 -5 18 -8 22 -4 3
-5 -1 -4 -10z"/>
<path d="M23414 15146 c1 -8 5 -18 8 -22 4 -3 5 1 4 10 -1 8 -5 18 -8 22 -4 3
-5 -1 -4 -10z"/>
<path d="M23459 15158 c-5 -18 -6 -38 -1 -34 7 8 12 36 6 36 -2 0 -4 -1 -5 -2z"/>
<path d="M23574 15146 c1 -8 5 -18 8 -22 4 -3 5 1 4 10 -1 8 -5 18 -8 22 -4 3
-5 -1 -4 -10z"/>
<path d="M23810 15150 c0 -5 5 -10 11 -10 5 0 7 5 4 10 -3 6 -8 10 -11 10 -2
0 -4 -4 -4 -10z"/>
<path d="M24015 15150 c-3 -5 -1 -10 4 -10 6 0 11 5 11 10 0 6 -2 10 -4 10 -3
0 -8 -4 -11 -10z"/>
<path d="M24215 15150 c-3 -5 -1 -10 4 -10 6 0 11 5 11 10 0 6 -2 10 -4 10 -3
0 -8 -4 -11 -10z"/>
<path d="M24259 15158 c-5 -18 -6 -38 -1 -34 7 8 12 36 6 36 -2 0 -4 -1 -5 -2z"/>
<path d="M24926 15152 c-3 -5 1 -9 9 -9 8 0 12 4 9 9 -3 4 -7 8 -9 8 -2 0 -6
-4 -9 -8z"/>
<path d="M26270 15120 c-8 -5 -17 -7 -20 -5 -3 2 -23 -21 -44 -51 -50 -72 -56
-115 -23 -180 27 -54 75 -187 102 -279 9 -33 21 -73 26 -89 5 -16 9 -32 9 -36
0 -4 -70 -42 -155 -85 -153 -75 -156 -76 -181 -60 -41 27 -121 37 -166 22 -15
-5 -39 -22 -52 -37 -27 -33 -26 -74 2 -139 8 -20 16 -40 17 -46 0 -5 7 -37 15
-70 7 -33 14 -62 15 -65 3 -15 39 -171 47 -205 6 -22 10 -42 10 -45 0 -3 4
-12 9 -21 4 -9 10 -28 13 -43 12 -67 163 -565 214 -706 3 -8 6 -19 8 -25 3
-15 54 -157 64 -180 4 -11 14 -36 21 -55 27 -76 79 -169 109 -193 63 -53 145
-43 184 24 9 16 22 29 27 29 6 0 29 9 51 20 23 11 45 20 50 20 4 0 32 11 62
25 30 14 57 25 60 25 2 0 17 5 33 12 15 6 33 12 38 14 6 1 129 43 275 92 335
114 384 129 445 138 28 4 55 9 60 9 6 1 20 3 32 3 29 2 81 51 84 77 4 48 -3
69 -30 94 -19 18 -32 41 -35 67 -4 22 -9 51 -12 64 -3 14 -7 36 -10 50 -3 14
-7 33 -10 42 -3 9 -7 25 -9 35 -2 10 -14 61 -26 113 -12 52 -25 111 -29 130
-5 19 -11 46 -15 60 -3 14 -8 36 -11 50 -3 14 -12 52 -21 85 -8 33 -17 68 -19
78 -2 10 -6 27 -9 37 -3 10 -8 28 -10 39 -3 12 -7 31 -11 44 -3 12 -7 32 -10
44 -2 12 -9 34 -14 48 -5 14 -7 25 -5 25 2 0 0 11 -5 25 -5 14 -12 36 -14 48
-12 58 -18 80 -52 202 -20 71 -42 142 -49 156 -33 63 -129 126 -224 148 -41 9
-109 7 -170 -4 -48 -9 -273 -85 -288 -97 -7 -6 -13 -8 -13 -4 0 4 -14 -1 -31
-9 -17 -9 -32 -15 -34 -13 -3 3 -36 116 -59 198 -18 68 -34 156 -41 235 -7 81
-11 90 -43 105 -32 16 -113 22 -132 10z m771 -660 c20 -11 56 -78 64 -119 2
-10 13 -51 25 -91 12 -40 23 -80 26 -89 3 -15 18 -71 29 -113 15 -56 16 -55
-58 -86 -70 -29 -102 -42 -122 -48 -16 -5 -115 -41 -187 -68 -38 -14 -68 -24
-69 -23 0 1 -2 9 -4 17 -1 8 -9 35 -16 60 -7 25 -13 47 -14 50 0 3 -4 16 -8
30 -4 14 -13 43 -19 65 -6 22 -17 61 -24 86 -8 25 -16 54 -18 65 -2 10 -10 39
-17 64 -7 25 -13 50 -15 55 -1 6 -3 17 -5 25 -3 11 33 29 130 68 176 70 245
82 302 52z m-645 -233 c2 -7 12 -43 24 -82 11 -38 22 -78 25 -88 2 -10 9 -32
15 -50 25 -77 70 -241 70 -257 0 -10 -10 -20 -22 -23 -13 -3 -41 -12 -63 -21
-22 -8 -92 -35 -155 -60 -63 -24 -119 -40 -124 -36 -8 8 -13 27 -56 200 -11
47 -25 101 -30 120 -5 19 -12 53 -16 75 -3 22 -8 42 -10 44 -7 7 160 111 280
174 50 27 58 27 62 4z m879 -542 c9 -41 17 -78 17 -82 0 -5 4 -19 9 -32 5 -13
12 -40 15 -60 3 -20 9 -52 14 -71 5 -19 11 -46 14 -60 5 -30 17 -97 22 -125
12 -63 14 -124 3 -130 -6 -4 -86 -33 -179 -65 l-168 -57 -17 36 c-15 32 -72
179 -79 206 -1 6 -20 64 -41 130 -22 66 -40 122 -40 125 -1 3 -9 29 -18 59 -9
30 -17 56 -17 57 0 4 217 82 278 100 14 4 10 3 77 26 88 30 91 28 110 -57z
m-644 -265 c7 -25 14 -49 15 -55 3 -13 44 -157 48 -170 2 -5 6 -23 11 -40 4
-16 18 -68 32 -115 35 -121 36 -130 18 -130 -8 0 -23 -4 -33 -10 -9 -5 -64
-25 -122 -45 -58 -20 -117 -42 -131 -49 -15 -8 -31 -11 -37 -7 -9 5 -178 496
-187 543 -2 10 -6 22 -9 27 -10 15 19 30 190 100 l169 68 12 -36 c6 -20 17
-56 24 -81z"/>
<path d="M22066 15112 c-3 -5 1 -9 9 -9 8 0 12 4 9 9 -3 4 -7 8 -9 8 -2 0 -6
-4 -9 -8z"/>
<path d="M22630 15116 c0 -2 7 -7 16 -10 8 -3 12 -2 9 4 -6 10 -25 14 -25 6z"/>
<path d="M22716 15103 c-6 -14 -5 -15 5 -6 7 7 10 15 7 18 -3 3 -9 -2 -12 -12z"/>
<path d="M23505 15110 c-3 -6 1 -7 9 -4 18 7 21 14 7 14 -6 0 -13 -4 -16 -10z"/>
<path d="M24315 15110 c3 -5 8 -10 11 -10 2 0 4 5 4 10 0 6 -5 10 -11 10 -5 0
-7 -4 -4 -10z"/>
<path d="M25190 15110 c0 -5 5 -10 11 -10 5 0 7 5 4 10 -3 6 -8 10 -11 10 -2
0 -4 -4 -4 -10z"/>
<path d="M25665 15110 c-3 -6 1 -7 9 -4 18 7 21 14 7 14 -6 0 -13 -4 -16 -10z"/>
<path d="M16595 15075 c-63 -32 -318 -217 -343 -248 -8 -9 -16 -40 -18 -69 -6
-61 21 -117 56 -119 11 -1 26 -2 33 -3 28 -5 86 29 142 83 100 96 225 190 261
195 21 3 52 36 60 64 12 42 7 70 -19 98 -37 40 -94 40 -172 -1z"/>
<path d="M19982 15074 c-15 -36 -7 -118 15 -155 9 -15 30 -33 45 -40 29 -12
45 -15 124 -23 23 -3 59 -9 80 -15 21 -5 50 -12 64 -15 120 -24 116 -12 56
-161 -56 -144 -51 -139 -141 -121 -45 8 -98 16 -136 20 -19 2 -47 6 -64 9 -16
3 -51 8 -76 11 l-46 6 -15 -48 c-25 -77 -9 -142 45 -176 19 -12 91 -19 284
-29 l21 -1 -20 -50 c-11 -28 -42 -107 -70 -176 -28 -69 -51 -130 -51 -137 0
-7 -3 -10 -7 -8 -4 2 -22 7 -41 10 -19 3 -42 8 -51 11 -9 3 -26 7 -37 9 -12 3
-31 7 -42 10 -54 12 -184 47 -192 52 -5 3 -7 16 -5 28 5 23 -5 24 -37 6 -5 -3
-15 -6 -21 -7 -47 -7 -84 -65 -84 -131 0 -74 46 -115 145 -128 28 -4 52 -9 55
-10 3 -2 26 -6 50 -10 69 -10 92 -14 202 -36 129 -26 95 -18 358 -84 124 -31
232 -58 240 -60 14 -3 79 -21 165 -45 74 -21 190 -62 225 -80 104 -53 190 -10
190 93 0 51 -57 121 -114 140 -24 8 -47 13 -50 9 -3 -3 -6 0 -6 6 0 10 6 28
35 97 7 17 25 59 40 95 40 94 43 191 9 257 -65 123 -171 185 -435 254 -42 11
-86 22 -99 24 -12 2 -25 6 -27 9 -2 2 17 58 43 125 33 85 52 121 63 121 16 0
50 -9 251 -70 58 -17 110 -32 115 -34 52 -13 166 -54 190 -68 97 -56 144 -63
181 -26 39 39 40 75 2 137 -41 68 -91 108 -143 116 -22 3 -48 8 -57 11 -9 3
-25 7 -35 9 -28 7 -73 19 -258 70 -33 10 -70 19 -82 22 -13 3 -21 8 -19 12 2
3 -8 6 -22 7 -37 1 -75 10 -132 32 -18 7 -16 6 -65 17 -22 5 -42 9 -45 10 -3
1 -20 6 -37 10 -19 4 -30 12 -26 18 3 6 1 7 -5 3 -6 -4 -29 -2 -49 3 -21 6
-47 12 -58 14 -47 9 -80 21 -87 31 -5 7 -8 7 -8 -2 0 -7 -5 -10 -11 -7 -6 4
-40 14 -77 22 -37 8 -76 16 -87 19 -11 3 -41 8 -66 11 -43 5 -46 4 -57 -23z
m738 -839 c86 -22 189 -78 191 -103 5 -53 -3 -85 -38 -162 -22 -47 -48 -104
-58 -127 -21 -49 -28 -51 -119 -27 -33 9 -68 18 -76 19 -8 2 -30 8 -47 14 -18
5 -33 8 -33 6 0 -3 -11 0 -25 5 -14 5 -36 12 -48 14 -23 5 -51 12 -89 22 -13
3 -29 6 -35 6 -7 1 -13 2 -13 3 0 8 35 102 40 110 4 6 13 28 20 50 7 22 16 45
20 50 3 6 21 49 39 96 l33 86 111 -29 c62 -16 119 -30 127 -33z"/>
<path d="M19233 15075 c0 -8 4 -12 9 -9 5 3 6 10 3 15 -9 13 -12 11 -12 -6z"/>
<path d="M24433 15065 c0 -8 4 -12 9 -9 5 3 6 10 3 15 -9 13 -12 11 -12 -6z"/>
<path d="M21516 15032 c-3 -5 1 -9 9 -9 8 0 12 4 9 9 -3 4 -7 8 -9 8 -2 0 -6
-4 -9 -8z"/>
<path d="M25710 15029 c0 -5 5 -7 10 -4 6 3 10 8 10 11 0 2 -4 4 -10 4 -5 0
-10 -5 -10 -11z"/>
<path d="M25796 15028 c3 -5 10 -6 15 -3 13 9 11 12 -6 12 -8 0 -12 -4 -9 -9z"/>
<path d="M16838 14887 c-161 -169 -218 -242 -244 -312 -36 -99 -16 -180 69
-272 48 -52 204 -157 297 -201 62 -28 205 -82 215 -81 3 0 19 -3 36 -6 74 -16
127 17 135 86 7 57 -46 127 -101 136 -93 15 -304 106 -378 163 -35 27 -67 65
-67 79 0 13 29 51 100 136 69 82 117 127 162 156 54 35 70 62 62 105 -11 60
-87 134 -137 133 -27 0 -49 -18 -149 -122z"/>
<path d="M25313 14995 c0 -8 4 -12 9 -9 5 3 6 10 3 15 -9 13 -12 11 -12 -6z"/>
<path d="M25469 14993 c-13 -16 -12 -17 4 -4 16 13 21 21 13 21 -2 0 -10 -8
-17 -17z"/>
<path d="M22304 14992 c4 -3 14 -7 22 -8 9 -1 13 0 10 4 -4 3 -14 7 -22 8 -9
1 -13 0 -10 -4z"/>
<path d="M25185 14989 c-3 -4 2 -6 10 -5 21 3 28 13 10 13 -9 0 -18 -4 -20 -8z"/>
<path d="M25742 14954 c10 -10 20 -16 22 -13 3 3 -5 11 -17 18 -21 13 -21 12
-5 -5z"/>
<path d="M22346 14952 c-3 -5 1 -9 9 -9 8 0 12 4 9 9 -3 4 -7 8 -9 8 -2 0 -6
-4 -9 -8z"/>
<path d="M23453 14945 c0 -8 4 -12 9 -9 5 3 6 10 3 15 -9 13 -12 11 -12 -6z"/>
<path d="M24350 14951 c0 -6 4 -13 10 -16 6 -3 7 1 4 9 -7 18 -14 21 -14 7z"/>
<path d="M24950 14930 c0 -5 5 -10 10 -10 6 0 10 5 10 10 0 6 -4 10 -10 10 -5
0 -10 -4 -10 -10z"/>
<path d="M17220 14872 c-78 -26 -93 -62 -64 -148 9 -25 17 -54 19 -63 1 -9 8
-34 13 -56 6 -22 13 -62 17 -90 7 -55 16 -70 57 -91 50 -26 133 0 161 50 15
28 15 35 0 79 -6 20 -10 37 -8 37 2 0 -1 15 -6 33 -6 17 -12 39 -14 47 -2 8
-14 53 -27 99 -30 111 -61 133 -148 103z"/>
<path d="M24525 14870 c-3 -6 1 -7 9 -4 18 7 21 14 7 14 -6 0 -13 -4 -16 -10z"/>
<path d="M19016 14689 c-51 -60 -48 -135 7 -185 32 -30 38 -31 128 -33 154 -4
226 -13 245 -33 10 -11 1 -37 -50 -138 -65 -131 -163 -318 -176 -335 -12 -16
-213 -398 -212 -402 1 -2 -8 -24 -19 -50 -32 -76 -36 -86 -49 -119 -10 -28
-14 -86 -9 -137 5 -47 116 -133 199 -153 69 -17 181 -30 230 -27 54 4 120 28
120 43 0 5 7 15 14 23 19 19 25 65 14 99 -17 47 -42 55 -163 53 -116 -3 -175
7 -175 28 0 22 157 331 245 482 12 22 34 60 48 85 14 25 39 70 56 100 18 30
66 124 109 208 73 147 76 156 76 221 0 55 -5 77 -26 112 -41 70 -119 124 -210
145 -10 2 -28 6 -40 9 -13 3 -45 8 -73 10 -27 3 -70 7 -95 10 -172 17 -166 18
-194 -16z"/>
<path d="M22624 14668 c-19 -17 -34 -39 -34 -50 0 -10 -6 -40 -14 -66 -19 -63
-57 -200 -60 -215 -2 -7 -8 -32 -15 -57 -15 -50 -15 -49 -26 -102 -4 -21 -12
-38 -19 -39 -6 0 -20 -3 -31 -5 -11 -3 -31 -7 -45 -9 -74 -13 -164 -37 -177
-48 -7 -5 -13 -7 -13 -3 0 6 -146 -46 -189 -69 -71 -36 -76 -80 -20 -161 63
-92 104 -100 203 -40 32 19 88 45 125 57 36 12 71 24 78 26 8 3 7 -7 -3 -35
-7 -22 -15 -51 -18 -64 -2 -12 -23 -90 -46 -172 -23 -81 -43 -156 -45 -165 -7
-34 -107 -389 -146 -520 -23 -75 -43 -143 -44 -151 -2 -8 -4 -16 -5 -17 -2 -2
-3 -6 -4 -10 -1 -5 -17 -55 -36 -113 -18 -58 -34 -107 -35 -110 -1 -3 -7 -18
-14 -35 -56 -135 -60 -186 -17 -257 50 -85 112 -112 174 -79 26 14 48 53 56
101 8 49 11 61 41 185 15 61 28 118 31 129 2 10 11 44 20 75 9 31 18 63 19 71
4 15 105 392 110 410 13 44 28 100 32 119 2 14 6 28 9 33 3 4 7 16 9 25 2 10
15 56 28 103 44 153 89 315 92 330 2 8 8 29 15 45 6 17 11 31 11 33 -1 1 -1 3
0 5 0 1 2 10 4 19 2 9 9 33 15 54 l12 36 72 -5 c142 -10 221 -56 218 -127 -3
-64 -15 -274 -17 -300 -4 -52 -16 -191 -20 -225 -1 -16 -6 -64 -10 -105 -8
-78 -9 -90 -20 -180 -4 -30 -8 -66 -10 -80 -6 -47 -15 -125 -20 -160 -3 -19
-7 -53 -10 -75 -3 -22 -7 -51 -9 -65 -3 -14 -7 -47 -11 -74 -7 -56 -42 -164
-60 -186 -7 -8 -17 -29 -23 -46 -9 -28 -6 -38 29 -93 54 -85 89 -96 184 -56
52 22 71 43 86 96 16 56 16 55 24 109 3 25 8 56 10 70 2 14 7 50 10 80 3 30 8
66 10 80 3 14 7 54 10 90 3 35 7 76 10 90 2 14 6 52 10 85 3 33 8 80 10 105 3
25 7 68 10 95 2 28 7 73 9 100 3 28 8 84 11 125 3 41 8 95 10 120 7 86 17 266
20 378 3 104 1 117 -22 160 -21 41 -36 59 -91 103 -29 24 -140 77 -177 84 -22
5 -47 10 -55 11 -8 2 -37 6 -64 9 -27 3 -52 7 -56 10 -9 5 89 299 120 360 11
22 18 50 16 63 -12 56 -89 112 -161 117 -30 2 -45 -4 -71 -27z"/>
<path d="M25125 14683 c-156 -16 -214 -71 -180 -169 27 -80 76 -107 154 -84
25 7 74 15 107 16 53 2 72 -2 135 -33 41 -20 86 -44 100 -54 44 -31 78 -31
104 -3 20 22 23 34 21 87 -1 41 -9 72 -22 92 -23 36 -54 64 -71 65 -7 0 -13 3
-13 8 0 14 -132 59 -200 68 -59 7 -107 10 -135 7z"/>
<path d="M17489 14434 c-31 -20 -58 -63 -53 -84 2 -8 10 -39 18 -68 17 -62 13
-181 -10 -272 -17 -67 -16 -85 6 -105 17 -16 36 -20 85 -20 56 0 67 3 93 28
17 16 34 45 38 65 4 21 9 44 11 52 12 43 10 247 -2 287 -15 49 -15 50 -15 61
0 5 -11 21 -24 37 -31 35 -106 45 -147 19z"/>
<path d="M23380 14280 c-28 -26 -29 -29 -29 -141 -1 -63 -3 -141 -5 -174 -16
-258 -21 -451 -21 -935 0 -641 6 -751 46 -816 11 -18 29 -38 42 -46 31 -20 93
-22 118 -5 22 16 49 61 49 83 0 27 18 30 187 40 154 8 351 9 413 2 54 -7 110
13 117 42 3 11 8 20 12 20 11 0 12 53 0 87 -6 18 -19 38 -29 43 -12 6 -17 18
-15 31 15 79 29 494 40 1219 5 326 0 372 -45 444 -28 46 -89 94 -148 116 -59
22 -237 20 -362 -5 -14 -3 -36 -7 -50 -10 -56 -11 -72 -14 -92 -20 -11 -4 -26
-1 -37 9 -55 50 -146 58 -191 16z m653 -219 c21 -20 22 -30 21 -184 0 -144 -8
-454 -19 -772 -4 -115 -13 -294 -20 -380 -2 -27 -6 -83 -9 -124 -3 -41 -8 -76
-10 -78 -3 -3 -31 -7 -63 -8 -32 -2 -94 -7 -138 -10 -44 -3 -115 -7 -157 -10
l-78 -6 5 568 c3 312 6 593 8 623 3 30 8 102 12 160 4 58 8 117 9 131 1 26 25
64 34 54 3 -3 11 0 19 6 7 6 13 9 13 6 0 -4 18 0 39 8 39 13 66 19 146 31 22
3 41 7 43 9 1 1 30 1 63 0 47 -1 65 -7 82 -24z"/>
<path d="M25229 13856 c-2 -2 -24 -6 -48 -10 -24 -3 -59 -15 -78 -27 -61 -38
-62 -135 -3 -199 33 -36 56 -37 155 -11 99 26 144 20 292 -40 86 -35 115 -36
143 -7 24 26 27 101 6 152 -24 58 -123 113 -236 132 -42 7 -226 15 -231 10z"/>
<path d="M19733 13639 c-24 -9 -43 -38 -43 -66 0 -10 -16 -67 -36 -128 -19
-60 -37 -117 -39 -125 -2 -8 -15 -55 -29 -105 -14 -49 -28 -103 -30 -120 -6
-32 -12 -63 -21 -105 -3 -14 -8 -47 -11 -75 -3 -27 -7 -62 -9 -78 -11 -85 88
-150 185 -121 24 7 46 11 50 9 3 -2 24 -6 46 -9 36 -6 50 -9 109 -21 38 -9 61
-15 190 -50 72 -20 137 -38 145 -40 68 -17 166 -53 222 -81 84 -42 114 -48
149 -27 36 21 53 55 46 90 -4 21 7 51 47 123 54 100 62 116 95 191 79 181 85
253 30 346 -44 73 -114 125 -214 158 -44 15 -86 29 -95 31 -8 2 -42 11 -75 20
-33 9 -67 17 -75 19 -80 18 -160 35 -180 38 -81 15 -150 27 -185 32 -22 4 -50
8 -61 10 -12 2 -33 15 -48 30 -43 43 -122 70 -163 54z m327 -324 c95 -9 132
-14 160 -20 14 -3 35 -7 48 -9 12 -3 30 -7 40 -10 9 -3 28 -7 42 -10 77 -15
181 -48 224 -70 38 -20 64 -65 47 -81 -3 -4 -6 -10 -7 -13 -5 -38 -123 -279
-157 -320 -10 -13 -29 -12 -87 3 -8 2 -49 13 -90 24 -41 10 -120 31 -175 45
-55 15 -109 28 -120 30 -11 2 -47 11 -81 20 -64 16 -100 24 -123 25 -10 1 -12
12 -6 47 11 74 27 142 45 194 4 14 16 52 26 85 10 33 22 63 28 67 10 7 80 4
186 -7z"/>
<path d="M25881 13004 c-34 -14 -453 -428 -456 -449 0 -5 3 -28 8 -50 5 -22
10 -48 13 -59 11 -55 64 -94 126 -91 48 2 65 17 153 146 40 59 83 119 96 135
42 49 123 137 149 160 14 12 36 31 49 43 59 52 12 169 -71 177 -18 2 -49 -4
-67 -12z"/>
</g>
</svg>
